G04 #@! TF.GenerationSoftware,KiCad,Pcbnew,5.0.0-rc2-dev-unknown-6866c0c~65~ubuntu18.04.1*
G04 #@! TF.CreationDate,2018-05-11T09:14:19+03:00*
G04 #@! TF.ProjectId,MiniBot_RevA,4D696E69426F745F526576412E6B6963,rev?*
G04 #@! TF.SameCoordinates,Original*
G04 #@! TF.FileFunction,Legend,Top*
G04 #@! TF.FilePolarity,Positive*
%FSLAX46Y46*%
G04 Gerber Fmt 4.6, Leading zero omitted, Abs format (unit mm)*
G04 Created by KiCad (PCBNEW 5.0.0-rc2-dev-unknown-6866c0c~65~ubuntu18.04.1) date Fri May 11 09:14:19 2018*
%MOMM*%
%LPD*%
G01*
G04 APERTURE LIST*
%ADD10C,0.200000*%
%ADD11C,0.100000*%
%ADD12C,0.450000*%
%ADD13C,0.300000*%
%ADD14C,0.254000*%
%ADD15C,0.127000*%
%ADD16C,0.150000*%
%ADD17C,0.010000*%
%ADD18C,0.062500*%
%ADD19C,0.012700*%
%ADD20C,0.420000*%
%ADD21C,0.370000*%
%ADD22C,0.400000*%
%ADD23C,0.380000*%
%ADD24C,1.000000*%
G04 APERTURE END LIST*
D10*
X112632814Y-62459081D02*
X112797772Y-62363843D01*
X112904060Y-62357463D01*
X113034157Y-62392323D01*
X113170635Y-62533470D01*
X113337301Y-62822145D01*
X113391300Y-63010912D01*
X113356441Y-63141010D01*
X113297772Y-63229868D01*
X113132814Y-63325106D01*
X113026526Y-63331486D01*
X112896429Y-63296626D01*
X112759951Y-63155479D01*
X112593284Y-62866804D01*
X112539286Y-62678037D01*
X112574145Y-62547939D01*
X112632814Y-62459081D01*
X113810073Y-62879105D02*
X113957600Y-62848916D01*
X114163797Y-62729868D01*
X114222466Y-62641010D01*
X114239896Y-62575961D01*
X114233516Y-62469673D01*
X114185897Y-62387194D01*
X114097039Y-62328525D01*
X114031990Y-62311095D01*
X113925702Y-62317475D01*
X113736935Y-62371474D01*
X113630647Y-62377854D01*
X113565598Y-62360424D01*
X113476740Y-62301755D01*
X113429121Y-62219276D01*
X113422741Y-62112988D01*
X113440171Y-62047939D01*
X113498840Y-61959081D01*
X113705036Y-61840033D01*
X113852564Y-61809844D01*
X114699908Y-62420344D02*
X114199908Y-61554319D01*
X114438003Y-61966712D02*
X114932875Y-61680998D01*
X115194780Y-62134630D02*
X114694780Y-61268605D01*
X115024694Y-61078128D02*
X115730891Y-61825106D01*
X115538705Y-61111279D01*
X116060805Y-61634630D01*
X115767001Y-60649557D01*
D11*
X90316154Y-58520096D02*
X89954274Y-58959967D01*
X90516154Y-58866506D01*
X91081303Y-58578707D02*
X91040235Y-58640908D01*
X90924765Y-58707574D01*
X90850363Y-58712040D01*
X90804829Y-58699839D01*
X90742628Y-58658771D01*
X90642628Y-58485566D01*
X90638162Y-58411164D01*
X90650363Y-58365630D01*
X90691431Y-58303429D01*
X90806902Y-58236762D01*
X90881303Y-58232297D01*
X91124444Y-58053429D02*
X91686324Y-57959967D01*
X91324444Y-58399839D01*
X91762799Y-57492425D02*
X91775000Y-57446891D01*
X91816068Y-57384690D01*
X91960405Y-57301356D01*
X92034807Y-57296891D01*
X92080341Y-57309091D01*
X92142542Y-57350160D01*
X92175875Y-57407895D01*
X92197008Y-57511164D01*
X92050598Y-58057574D01*
X92425875Y-57840908D01*
X92451153Y-57018023D02*
X92508888Y-56984690D01*
X92583290Y-56980224D01*
X92628824Y-56992425D01*
X92691025Y-57033493D01*
X92786559Y-57132297D01*
X92869892Y-57276634D01*
X92907692Y-57408771D01*
X92912157Y-57483173D01*
X92899957Y-57528707D01*
X92858888Y-57590908D01*
X92801153Y-57624241D01*
X92726751Y-57628707D01*
X92681217Y-57616506D01*
X92619016Y-57575437D01*
X92523482Y-57476634D01*
X92440149Y-57332297D01*
X92402350Y-57200160D01*
X92397884Y-57125758D01*
X92410085Y-57080224D01*
X92451153Y-57018023D01*
X93580576Y-57174241D02*
X93234166Y-57374241D01*
X93407371Y-57274241D02*
X93057371Y-56668023D01*
X93049636Y-56787959D01*
X93025234Y-56879027D01*
X92984166Y-56941228D01*
X93726986Y-56627831D02*
X93652584Y-56632297D01*
X93607050Y-56620096D01*
X93544849Y-56579027D01*
X93528183Y-56550160D01*
X93523717Y-56475758D01*
X93535918Y-56430224D01*
X93576986Y-56368023D01*
X93692456Y-56301356D01*
X93766858Y-56296891D01*
X93812392Y-56309091D01*
X93874593Y-56350160D01*
X93891260Y-56379027D01*
X93895725Y-56453429D01*
X93883525Y-56498963D01*
X93842456Y-56561164D01*
X93726986Y-56627831D01*
X93685918Y-56690032D01*
X93673717Y-56735566D01*
X93678183Y-56809967D01*
X93744849Y-56925437D01*
X93807050Y-56966506D01*
X93852584Y-56978707D01*
X93926986Y-56974241D01*
X94042456Y-56907574D01*
X94083525Y-56845373D01*
X94095725Y-56799839D01*
X94091260Y-56725437D01*
X94024593Y-56609967D01*
X93962392Y-56568899D01*
X93916858Y-56556698D01*
X93842456Y-56561164D01*
D12*
X84631035Y-60176403D02*
X83964369Y-59021703D01*
X84059607Y-59186660D02*
X84086219Y-59061324D01*
X84187061Y-58893131D01*
X84409753Y-58764560D01*
X84605834Y-58761324D01*
X84775303Y-58883424D01*
X85299112Y-59790689D01*
X84775303Y-58883424D02*
X84754295Y-58675610D01*
X84855138Y-58507417D01*
X85077830Y-58378846D01*
X85273910Y-58375610D01*
X85443379Y-58497710D01*
X85967189Y-59404975D01*
X86709496Y-58976403D02*
X86042830Y-57821703D01*
X85709496Y-57244353D02*
X85682885Y-57369688D01*
X85804734Y-57409310D01*
X85831346Y-57283974D01*
X85709496Y-57244353D01*
X85804734Y-57409310D01*
X86785137Y-57393131D02*
X87451804Y-58547832D01*
X86880375Y-57558089D02*
X86906987Y-57432753D01*
X87007829Y-57264560D01*
X87230522Y-57135989D01*
X87426602Y-57132753D01*
X87596071Y-57254853D01*
X88119881Y-58162118D01*
X88862188Y-57733546D02*
X88195521Y-56578846D01*
X87862188Y-56001495D02*
X87835576Y-56126831D01*
X87957426Y-56166453D01*
X87984038Y-56041117D01*
X87862188Y-56001495D01*
X87957426Y-56166453D01*
X89604496Y-57304975D02*
X88604496Y-55572924D01*
X88985448Y-56232753D02*
X89086290Y-56064560D01*
X89383213Y-55893131D01*
X89579294Y-55889896D01*
X89701144Y-55929517D01*
X89870613Y-56051617D01*
X90156327Y-56546489D01*
X90177334Y-56754303D01*
X90150723Y-56879639D01*
X90049880Y-57047832D01*
X89752957Y-57219261D01*
X89556877Y-57222496D01*
X91237572Y-56362118D02*
X91041491Y-56365353D01*
X90919642Y-56325732D01*
X90750173Y-56203632D01*
X90464459Y-55708760D01*
X90443451Y-55500946D01*
X90470063Y-55375610D01*
X90570905Y-55207417D01*
X90793598Y-55078846D01*
X90989678Y-55075610D01*
X91111528Y-55115232D01*
X91280997Y-55237332D01*
X91566711Y-55732203D01*
X91587718Y-55940018D01*
X91561107Y-56065353D01*
X91460264Y-56233546D01*
X91237572Y-56362118D01*
X91535905Y-54650274D02*
X92129751Y-54307417D01*
X91425264Y-53944353D02*
X92282407Y-55428968D01*
X92451876Y-55551068D01*
X92647956Y-55547832D01*
X92796418Y-55462118D01*
D13*
X107928571Y-48928571D02*
X107214285Y-48928571D01*
X107214285Y-47428571D01*
X108428571Y-48928571D02*
X108428571Y-47928571D01*
X108428571Y-47428571D02*
X108357142Y-47500000D01*
X108428571Y-47571428D01*
X108500000Y-47500000D01*
X108428571Y-47428571D01*
X108428571Y-47571428D01*
X109142857Y-48928571D02*
X109142857Y-47428571D01*
X109714285Y-47428571D01*
X109857142Y-47500000D01*
X109928571Y-47571428D01*
X110000000Y-47714285D01*
X110000000Y-47928571D01*
X109928571Y-48071428D01*
X109857142Y-48142857D01*
X109714285Y-48214285D01*
X109142857Y-48214285D01*
X110857142Y-48928571D02*
X110714285Y-48857142D01*
X110642857Y-48785714D01*
X110571428Y-48642857D01*
X110571428Y-48214285D01*
X110642857Y-48071428D01*
X110714285Y-48000000D01*
X110857142Y-47928571D01*
X111071428Y-47928571D01*
X111214285Y-48000000D01*
X111285714Y-48071428D01*
X111357142Y-48214285D01*
X111357142Y-48642857D01*
X111285714Y-48785714D01*
X111214285Y-48857142D01*
X111071428Y-48928571D01*
X110857142Y-48928571D01*
X110428571Y-50607142D02*
X111571428Y-50607142D01*
X113428571Y-50607142D02*
X114571428Y-50607142D01*
X114000000Y-51178571D02*
X114000000Y-50035714D01*
D10*
X106308169Y-33825056D02*
X106234961Y-33747735D01*
X106222787Y-33641954D01*
X106515947Y-32836503D01*
X107040412Y-34040896D02*
X106934630Y-34053070D01*
X106755641Y-33987923D01*
X106682433Y-33910602D01*
X106670260Y-33804821D01*
X106800553Y-33446843D01*
X106877874Y-33373635D01*
X106983655Y-33361461D01*
X107162644Y-33426608D01*
X107235852Y-33503928D01*
X107248026Y-33609710D01*
X107215452Y-33699204D01*
X106735406Y-33625832D01*
X107565369Y-33573188D02*
X107923347Y-33703481D01*
X107471598Y-34248510D02*
X107764758Y-33443059D01*
X107842078Y-33369851D01*
X107947860Y-33357677D01*
X108037354Y-33390250D01*
X108102336Y-33768628D02*
X108460315Y-33898921D01*
X108350585Y-33504257D02*
X108057425Y-34309708D01*
X108069599Y-34415489D01*
X108142807Y-34492810D01*
X108232301Y-34525383D01*
X104742295Y-35064226D02*
X104970308Y-34437765D01*
X104937735Y-34527259D02*
X104998769Y-34498798D01*
X105104550Y-34486625D01*
X105238792Y-34535485D01*
X105312000Y-34612805D01*
X105324174Y-34718586D01*
X105145020Y-35210806D01*
X105324174Y-34718586D02*
X105401494Y-34645379D01*
X105507275Y-34633205D01*
X105641517Y-34682065D01*
X105714725Y-34759385D01*
X105726899Y-34865166D01*
X105547746Y-35357386D01*
X106129460Y-35569113D02*
X106056252Y-35491793D01*
X106027792Y-35430759D01*
X106015618Y-35324977D01*
X106113338Y-35056494D01*
X106190658Y-34983286D01*
X106251692Y-34954825D01*
X106357473Y-34942651D01*
X106491715Y-34991511D01*
X106564923Y-35068832D01*
X106593384Y-35129866D01*
X106605558Y-35235647D01*
X106507838Y-35504131D01*
X106430517Y-35577339D01*
X106369483Y-35605799D01*
X106263702Y-35617973D01*
X106129460Y-35569113D01*
X106939188Y-35154378D02*
X107297166Y-35284672D01*
X107187436Y-34890007D02*
X106894276Y-35695458D01*
X106906450Y-35801239D01*
X106979658Y-35878560D01*
X107069153Y-35911133D01*
X107516625Y-36074000D02*
X107443417Y-35996679D01*
X107414957Y-35935645D01*
X107402783Y-35829864D01*
X107500503Y-35561381D01*
X107577824Y-35488173D01*
X107638858Y-35459712D01*
X107744639Y-35447538D01*
X107878881Y-35496398D01*
X107952088Y-35573719D01*
X107980549Y-35634753D01*
X107992723Y-35740534D01*
X107895003Y-36009018D01*
X107817682Y-36082226D01*
X107756648Y-36110686D01*
X107650867Y-36122860D01*
X107516625Y-36074000D01*
X108232582Y-36334587D02*
X108460595Y-35708125D01*
X108395448Y-35887114D02*
X108472769Y-35813906D01*
X108533803Y-35785446D01*
X108639584Y-35773272D01*
X108729079Y-35805845D01*
X91454467Y-34639390D02*
X91226454Y-34012928D01*
X91291600Y-34191917D02*
X91303774Y-34086136D01*
X91332235Y-34025102D01*
X91405443Y-33947781D01*
X91494937Y-33915208D01*
X92036181Y-34427663D02*
X91808168Y-33801201D01*
X91694161Y-33487970D02*
X91665701Y-33549004D01*
X91726735Y-33577465D01*
X91755195Y-33516431D01*
X91694161Y-33487970D01*
X91726735Y-33577465D01*
X92658366Y-33491754D02*
X92935240Y-34252458D01*
X92923066Y-34358239D01*
X92894605Y-34419273D01*
X92821397Y-34496594D01*
X92687155Y-34545454D01*
X92581374Y-34533280D01*
X92870093Y-34073469D02*
X92796885Y-34150790D01*
X92617896Y-34215936D01*
X92512115Y-34203762D01*
X92451081Y-34175302D01*
X92373760Y-34102094D01*
X92276040Y-33833610D01*
X92288214Y-33727829D01*
X92316675Y-33666795D01*
X92389882Y-33589474D01*
X92568872Y-33524328D01*
X92674653Y-33536502D01*
X93333852Y-33955349D02*
X92991832Y-33015657D01*
X93736578Y-33808769D02*
X93557424Y-33316549D01*
X93480104Y-33243342D01*
X93374322Y-33231168D01*
X93240081Y-33280028D01*
X93166873Y-33357348D01*
X93138412Y-33418382D01*
X93821795Y-33068301D02*
X94179773Y-32938008D01*
X93842030Y-32706210D02*
X94135190Y-33511661D01*
X94212511Y-33584869D01*
X94318292Y-33597043D01*
X94407787Y-33564469D01*
X91633176Y-36383447D02*
X91405162Y-35756985D01*
X91437735Y-35846480D02*
X91466196Y-35785446D01*
X91539404Y-35708125D01*
X91673646Y-35659265D01*
X91779427Y-35671439D01*
X91856748Y-35744647D01*
X92035901Y-36236867D01*
X91856748Y-35744647D02*
X91868921Y-35638866D01*
X91942129Y-35561545D01*
X92076371Y-35512685D01*
X92182152Y-35524859D01*
X92259473Y-35598067D01*
X92438626Y-36090287D01*
X93020341Y-35878560D02*
X92914560Y-35866386D01*
X92853526Y-35837925D01*
X92776205Y-35764718D01*
X92678485Y-35496234D01*
X92690659Y-35390453D01*
X92719120Y-35329419D01*
X92792327Y-35252098D01*
X92926569Y-35203238D01*
X93032350Y-35215412D01*
X93093384Y-35243873D01*
X93170705Y-35317081D01*
X93268425Y-35585564D01*
X93256251Y-35691345D01*
X93227791Y-35752379D01*
X93154583Y-35829700D01*
X93020341Y-35878560D01*
X93374042Y-35040371D02*
X93732020Y-34910078D01*
X93394277Y-34678281D02*
X93687437Y-35483731D01*
X93764758Y-35556939D01*
X93870539Y-35569113D01*
X93960033Y-35536540D01*
X94407506Y-35373673D02*
X94301725Y-35361499D01*
X94240691Y-35333039D01*
X94163370Y-35259831D01*
X94065650Y-34991347D01*
X94077824Y-34885566D01*
X94106285Y-34824532D01*
X94179493Y-34747211D01*
X94313735Y-34698351D01*
X94419516Y-34710525D01*
X94480550Y-34738986D01*
X94557870Y-34812194D01*
X94655590Y-35080677D01*
X94643416Y-35186458D01*
X94614956Y-35247492D01*
X94541748Y-35324813D01*
X94407506Y-35373673D01*
X95123462Y-35113086D02*
X94895449Y-34486625D01*
X94960596Y-34665614D02*
X94972770Y-34559832D01*
X95001230Y-34498798D01*
X95074438Y-34421478D01*
X95163933Y-34388904D01*
X83890090Y-33990991D02*
G75*
G03X85000000Y-36500000I1109910J-1009009D01*
G01*
X87000000Y-36500000D02*
X85000000Y-36500000D01*
X87000000Y-36500000D02*
G75*
G02X87500000Y-37000000I0J-500000D01*
G01*
X87500000Y-46000000D02*
G75*
G02X87000000Y-46500000I-500000J0D01*
G01*
X87500000Y-37000000D02*
X87500000Y-46000000D01*
X83500000Y-48000000D02*
G75*
G02X85000000Y-46500000I1500000J0D01*
G01*
X85000000Y-46500000D02*
X87000000Y-46500000D01*
X83500000Y-48000000D02*
X83507351Y-53003128D01*
X83300001Y-54000001D02*
G75*
G03X83507351Y-53003128I-2292650J996873D01*
G01*
X116699999Y-54000001D02*
G75*
G02X83300001Y-54000001I-16699999J-2999999D01*
G01*
X83888575Y-33986445D02*
G75*
G02X116080000Y-33960000I16111425J-19113555D01*
G01*
X113000000Y-46500000D02*
G75*
G02X112500000Y-46000000I0J500000D01*
G01*
X112500000Y-37000000D02*
G75*
G02X113000000Y-36500000I500000J0D01*
G01*
X116085033Y-33964287D02*
G75*
G02X115000000Y-36500000I-1085033J-1035713D01*
G01*
X115000000Y-46500000D02*
G75*
G02X116500000Y-48000000I0J-1500000D01*
G01*
X116700158Y-54005537D02*
G75*
G02X116489021Y-53000000I2288863J1005537D01*
G01*
X116500000Y-48000000D02*
X116490000Y-53000000D01*
X113000000Y-46500000D02*
X115000000Y-46500000D01*
X112500000Y-37000000D02*
X112500000Y-46000000D01*
X115000000Y-36500000D02*
X113000000Y-36500000D01*
D14*
X101700000Y-72550000D02*
G75*
G02X98300000Y-72550000I-1700000J1050000D01*
G01*
X98300000Y-70450000D02*
G75*
G02X101700000Y-70450000I1700000J-1050000D01*
G01*
D15*
X100254000Y-72981000D02*
X100254000Y-73108000D01*
X100254000Y-73108000D02*
X100127000Y-72981000D01*
X99746000Y-71838000D02*
X100254000Y-72346000D01*
X100254000Y-72346000D02*
X99746000Y-72346000D01*
X99746000Y-72346000D02*
X100254000Y-72981000D01*
X100254000Y-72981000D02*
X100254000Y-72854000D01*
X100254000Y-72854000D02*
X100000000Y-72981000D01*
X100000000Y-72981000D02*
X100254000Y-73108000D01*
D14*
X100381000Y-70484000D02*
X101016000Y-70484000D01*
X99111000Y-70484000D02*
X99746000Y-70484000D01*
X99746000Y-70865000D02*
X99746000Y-70103000D01*
X100381000Y-70103000D02*
X100381000Y-70865000D01*
X100381000Y-70865000D02*
X99746000Y-70484000D01*
X99746000Y-70484000D02*
X100381000Y-70103000D01*
X105700000Y-70050000D02*
G75*
G02X102300000Y-70050000I-1700000J1050000D01*
G01*
X102300000Y-67950000D02*
G75*
G02X105700000Y-67950000I1700000J-1050000D01*
G01*
D15*
X103746000Y-69551000D02*
X103746000Y-69424000D01*
X103746000Y-69424000D02*
X103873000Y-69551000D01*
X104254000Y-70694000D02*
X103746000Y-70186000D01*
X103746000Y-70186000D02*
X104254000Y-70186000D01*
X104254000Y-70186000D02*
X103746000Y-69551000D01*
X103746000Y-69551000D02*
X103746000Y-69678000D01*
X103746000Y-69678000D02*
X104000000Y-69551000D01*
X104000000Y-69551000D02*
X103746000Y-69424000D01*
D14*
X94300000Y-67950000D02*
G75*
G02X97700000Y-67950000I1700000J-1050000D01*
G01*
X97700000Y-70050000D02*
G75*
G02X94300000Y-70050000I-1700000J1050000D01*
G01*
D15*
X95746000Y-69551000D02*
X95746000Y-69424000D01*
X95746000Y-69424000D02*
X95873000Y-69551000D01*
X96254000Y-70694000D02*
X95746000Y-70186000D01*
X95746000Y-70186000D02*
X96254000Y-70186000D01*
X96254000Y-70186000D02*
X95746000Y-69551000D01*
X95746000Y-69551000D02*
X95746000Y-69678000D01*
X95746000Y-69678000D02*
X96000000Y-69551000D01*
X96000000Y-69551000D02*
X95746000Y-69424000D01*
D14*
X101803981Y-58778000D02*
G75*
G03X101803981Y-58778000I-283981J0D01*
G01*
X104085981Y-59921000D02*
G75*
G03X104085981Y-59921000I-283981J0D01*
G01*
X98345000Y-54587000D02*
X102155000Y-54587000D01*
X98345000Y-59413000D02*
X101901000Y-59413000D01*
X102149920Y-54602240D02*
X102149920Y-59133600D01*
X102149920Y-59133600D02*
X101883220Y-59397760D01*
X98350080Y-59397760D02*
X98350080Y-54602240D01*
D16*
X89170148Y-63665295D02*
X86947648Y-67514778D01*
X91369852Y-64935295D02*
X89170148Y-63665295D01*
X89147352Y-68784778D02*
X91369852Y-64935295D01*
X106630148Y-66935295D02*
X108852648Y-70784778D01*
X108829852Y-65665295D02*
X106630148Y-66935295D01*
X111052352Y-69514778D02*
X108829852Y-65665295D01*
X91147352Y-70784778D02*
X93369852Y-66935295D01*
X93369852Y-66935295D02*
X91170148Y-65665295D01*
X91170148Y-65665295D02*
X88947648Y-69514778D01*
X108630148Y-64935295D02*
X110852648Y-68784778D01*
X110829852Y-63665295D02*
X108630148Y-64935295D01*
X113052352Y-67514778D02*
X110829852Y-63665295D01*
D14*
X115530220Y-49609600D02*
X109482480Y-49609600D01*
X109482480Y-49609600D02*
X109482480Y-54125720D01*
X109482480Y-54125720D02*
X115517520Y-54125720D01*
X115517520Y-54125720D02*
X115517520Y-49632460D01*
X101143000Y-41238000D02*
X101143000Y-42762000D01*
X98857000Y-41238000D02*
X98857000Y-42762000D01*
X109952454Y-33562141D02*
X110821185Y-31175322D01*
X106286228Y-29524732D02*
X105960673Y-29676541D01*
X108673048Y-30393463D02*
X110343821Y-31001575D01*
X108347492Y-30545272D02*
X108673048Y-30393463D01*
X108195684Y-30219717D02*
X108347492Y-30545272D01*
X106286228Y-29524732D02*
X108195684Y-30219717D01*
X110343821Y-31001575D02*
X110821185Y-31175322D01*
X110582503Y-31088448D02*
X110734312Y-31414003D01*
X110039327Y-33323459D02*
X109713772Y-33475268D01*
X105265688Y-31585997D02*
X105960673Y-29676541D01*
X105417497Y-31911552D02*
X105265688Y-31585997D01*
X107326952Y-32606537D02*
X105417497Y-31911552D01*
X107652508Y-32454728D02*
X107326952Y-32606537D01*
X107804316Y-32780283D02*
X107652508Y-32454728D01*
X109713772Y-33475268D02*
X107804316Y-32780283D01*
X109952454Y-33562141D02*
X109713772Y-33475268D01*
X89178814Y-31175322D02*
X89417497Y-31088448D01*
X89417497Y-31088448D02*
X91326952Y-30393463D01*
X91326952Y-30393463D02*
X91652508Y-30545272D01*
X91652508Y-30545272D02*
X91804315Y-30219718D01*
X91804315Y-30219718D02*
X93713772Y-29524732D01*
X93713772Y-29524732D02*
X94039328Y-29676541D01*
X94039328Y-29676541D02*
X94734312Y-31585997D01*
X89265688Y-31414003D02*
X89417497Y-31088448D01*
X90286228Y-33475268D02*
X89960672Y-33323459D01*
X90524910Y-33388395D02*
X90047546Y-33562141D01*
X94582503Y-31911552D02*
X92673048Y-32606537D01*
X92673048Y-32606537D02*
X92347492Y-32454728D01*
X92347492Y-32454728D02*
X92195685Y-32780282D01*
X92195685Y-32780282D02*
X90524910Y-33388395D01*
X94582503Y-31911552D02*
X94734312Y-31585997D01*
X89178814Y-31175322D02*
X90047546Y-33562141D01*
X97288800Y-32365000D02*
X96577600Y-32365000D01*
X96577600Y-33203200D02*
X96577600Y-32365000D01*
X99422400Y-33203200D02*
X99422400Y-32365000D01*
X99422400Y-32365000D02*
X98711200Y-32365000D01*
X103422400Y-32365000D02*
X102711200Y-32365000D01*
X103422400Y-33203200D02*
X103422400Y-32365000D01*
X100577600Y-33203200D02*
X100577600Y-32365000D01*
X101288800Y-32365000D02*
X100577600Y-32365000D01*
X101357000Y-64238000D02*
X101357000Y-65762000D01*
X103643000Y-64238000D02*
X103643000Y-65762000D01*
X98857000Y-65762000D02*
X98857000Y-64238000D01*
X101143000Y-65762000D02*
X101143000Y-64238000D01*
X91738000Y-61857000D02*
X93262000Y-61857000D01*
X91738000Y-64143000D02*
X93262000Y-64143000D01*
X108262000Y-61857000D02*
X106738000Y-61857000D01*
X108262000Y-64143000D02*
X106738000Y-64143000D01*
X98643000Y-64238000D02*
X98643000Y-65762000D01*
X96357000Y-64238000D02*
X96357000Y-65762000D01*
D16*
X84944882Y-61741218D02*
G75*
G03X84944882Y-61741218I-172739J0D01*
G01*
D10*
X85062619Y-60974337D02*
X85269901Y-61028561D01*
X85288951Y-61061556D02*
X85790601Y-61930439D01*
X85752167Y-62143270D02*
X85803301Y-61952436D01*
X84886443Y-61939191D02*
X85108693Y-62324139D01*
X85501660Y-60718778D02*
X86092210Y-61741641D01*
X86092210Y-61741641D02*
X86328739Y-61795722D01*
X86328739Y-61795722D02*
X86570707Y-61656022D01*
D16*
X86947769Y-61552720D02*
G75*
G03X86947769Y-61552720I-172739J0D01*
G01*
D10*
X86203530Y-60562853D02*
X86559130Y-61178770D01*
D16*
X86261969Y-60364880D02*
G75*
G03X86261969Y-60364880I-172739J0D01*
G01*
X87442703Y-61266970D02*
G75*
G03X87442703Y-61266970I-172739J0D01*
G01*
D10*
X87162014Y-61079995D02*
X86577814Y-60068131D01*
X86577814Y-60068131D02*
X86775787Y-59953831D01*
X86775787Y-59953831D02*
X87382985Y-60116530D01*
X87382985Y-60116530D02*
X87484585Y-60292506D01*
X87395685Y-60138527D02*
X87578679Y-59490281D01*
D16*
X87771623Y-60490479D02*
G75*
G03X87771623Y-60490479I-172738J0D01*
G01*
D10*
X87578679Y-59490281D02*
X87765654Y-59382331D01*
X87765654Y-59382331D02*
X88330804Y-60361200D01*
D16*
X88630543Y-60581170D02*
G75*
G03X88630543Y-60581170I-172739J0D01*
G01*
X90484645Y-59525369D02*
G75*
G03X90484645Y-59525369I-172739J0D01*
G01*
D10*
X90130369Y-59439538D02*
X89731353Y-59332622D01*
X89731353Y-59332622D02*
X89566375Y-59427872D01*
X89566375Y-59427872D02*
X89380434Y-60121813D01*
X89380434Y-60121813D02*
X89039480Y-60318663D01*
X89039480Y-60318663D02*
X88807599Y-60247234D01*
X88807599Y-60247234D02*
X88521849Y-59752300D01*
X88274199Y-59323358D02*
X88339279Y-59080478D01*
X88528199Y-59763299D02*
X88274199Y-59323358D01*
X88339279Y-59080478D02*
X88680233Y-58883628D01*
X88680233Y-58883628D02*
X89356825Y-59064921D01*
X89356825Y-59064921D02*
X89532802Y-58963321D01*
X89532802Y-58963321D02*
X89625772Y-58616350D01*
D16*
X89841593Y-58386171D02*
G75*
G03X89841593Y-58386171I-172739J0D01*
G01*
D10*
X88895799Y-59536400D02*
X88521849Y-59752300D01*
D16*
X89244514Y-59434800D02*
G75*
G03X89244514Y-59434800I-172739J0D01*
G01*
D10*
X84643775Y-61214078D02*
X85061719Y-60972778D01*
X84587993Y-61422261D02*
X84643775Y-61214078D01*
X84670543Y-61565241D02*
X84587993Y-61422261D01*
X85323225Y-62390920D02*
X85121393Y-62346136D01*
X85752167Y-62143270D02*
X85323225Y-62390920D01*
D17*
X85362872Y-60681590D02*
X86010572Y-61803439D01*
X85450860Y-60630790D02*
X85362872Y-60681590D01*
X86023272Y-61825436D02*
X86346544Y-61902760D01*
X86016922Y-61814438D02*
X86023272Y-61825436D01*
X86010572Y-61803439D02*
X86016922Y-61814438D01*
X86040620Y-61830085D02*
X86016922Y-61814438D01*
X86346544Y-61902760D02*
X86621507Y-61744010D01*
X86357542Y-61896410D02*
X86340194Y-61891761D01*
X85538848Y-60579990D02*
X86167498Y-61668844D01*
X85450860Y-60630790D02*
X85538848Y-60579990D01*
D18*
X85402308Y-60694017D02*
X85444103Y-60669887D01*
X85487167Y-60647956D02*
X85528962Y-60623826D01*
D19*
X85370741Y-60679980D02*
X85407571Y-60743771D01*
X85531319Y-60587270D02*
X85570689Y-60655461D01*
X86690049Y-61217569D02*
X86525071Y-61312819D01*
X86641789Y-61133980D02*
X86690049Y-61217569D01*
X86525071Y-61312819D02*
X86113591Y-60600115D01*
X86523121Y-61299280D02*
X86681499Y-61207840D01*
X86514571Y-61289552D02*
X86672950Y-61198112D01*
X86508221Y-61278553D02*
X86666600Y-61187113D01*
X86501871Y-61267555D02*
X86662449Y-61174845D01*
X86449434Y-60033732D02*
X86733196Y-59869902D01*
X86497694Y-60117321D02*
X86449434Y-60033732D01*
X86501978Y-60018061D02*
X86462384Y-60040921D01*
X86460773Y-60033052D02*
X86481093Y-60068247D01*
X86473133Y-60049379D02*
X86486331Y-60041759D01*
X87800053Y-59253952D02*
X87848313Y-59337541D01*
X87725263Y-59297132D02*
X87800053Y-59253952D01*
X87765538Y-59285611D02*
X87798534Y-59266561D01*
X87798874Y-59272230D02*
X87814114Y-59298627D01*
X87781617Y-59288060D02*
X87799215Y-59277900D01*
X87793545Y-59278240D02*
X87801165Y-59291438D01*
D20*
X112668173Y-61494924D02*
X112434309Y-59987499D01*
D21*
X112276303Y-61507065D02*
X112654136Y-61526491D01*
D22*
X111866515Y-62377171D02*
X112276394Y-61527543D01*
D23*
X111097942Y-62199124D02*
X111855516Y-62383521D01*
D21*
X111111140Y-62191504D02*
X111156518Y-61203301D01*
X110382810Y-60579479D02*
X111134928Y-61165906D01*
X109415273Y-60859457D02*
X110347183Y-60573651D01*
D23*
X109035452Y-60181267D02*
X109424753Y-60865716D01*
D21*
X109018104Y-60176619D02*
X109810015Y-59511170D01*
X109818632Y-59465134D02*
X109686921Y-58541045D01*
X108736738Y-58048440D02*
X109643924Y-58507211D01*
D23*
X108716510Y-58033722D02*
X108883151Y-57321594D01*
D21*
X108912246Y-57275467D02*
X109955739Y-57426771D01*
X110003452Y-57387492D02*
X110532754Y-56612630D01*
X110240234Y-55587810D02*
X110568788Y-56568362D01*
X110227285Y-55580621D02*
X110906993Y-55188191D01*
X110901755Y-55214679D02*
X111595801Y-55990081D01*
X111595801Y-55990081D02*
X112601486Y-55928578D01*
X112609944Y-55917829D02*
X113075819Y-54916268D01*
X113076809Y-54917983D02*
X113829395Y-55114059D01*
X113830665Y-55116259D02*
X113691106Y-56108977D01*
X113691106Y-56108977D02*
X114454497Y-56750488D01*
X114454497Y-56750488D02*
X115505871Y-56407441D01*
X115505871Y-56407441D02*
X115923701Y-57131144D01*
X115923701Y-57131144D02*
X115131109Y-57785254D01*
X115131109Y-57785254D02*
X115235086Y-58778148D01*
X116002980Y-60006580D02*
X114996067Y-59933876D01*
X114996067Y-59933876D02*
X114796217Y-60263364D01*
X114796217Y-60263364D02*
X113578993Y-59303152D01*
X113586522Y-59295872D02*
G75*
G03X112975499Y-57495869I-1205513J594490D01*
G01*
X112991917Y-57503987D02*
G75*
G03X111225482Y-58295070I-487676J-1278759D01*
G01*
X111216186Y-58329767D02*
G75*
G03X112209276Y-59897451I1280387J-287297D01*
G01*
X115235086Y-58778148D02*
X116215044Y-59235965D01*
X116012368Y-59992361D02*
X116218854Y-59242564D01*
D16*
X112828733Y-61610463D02*
X112557468Y-59840137D01*
X112394978Y-61626256D02*
X112804628Y-61644911D01*
X112378899Y-61623808D02*
X111945935Y-62524892D01*
X111943146Y-62535301D02*
X110971720Y-62295462D01*
X110963851Y-62297072D02*
X111048982Y-61250722D01*
X109350170Y-61026094D02*
X110376235Y-60659531D01*
X108853600Y-60166009D02*
X109346360Y-61019495D01*
X108850130Y-60165080D02*
X109762594Y-59403633D01*
X109677146Y-59458833D02*
X109550947Y-58569690D01*
X108608566Y-58131239D02*
X109550017Y-58573159D01*
X108573188Y-58110603D02*
X108799240Y-57155936D01*
X108808969Y-57147386D02*
X110007396Y-57282563D01*
X109942310Y-57240951D02*
X110536175Y-56461075D01*
X110100765Y-55539283D02*
X110440068Y-56528294D01*
X110105754Y-55527604D02*
X110941641Y-55045004D01*
X110941641Y-55045004D02*
X111722885Y-55946038D01*
X111673446Y-55880727D02*
X112539663Y-55770698D01*
X112460407Y-55872182D02*
X112999339Y-54783801D01*
X113002468Y-54779061D02*
X113948428Y-55030670D01*
X113956637Y-55034730D02*
X113842619Y-56244404D01*
X113864999Y-56105367D02*
X114616096Y-56674786D01*
X115878637Y-56987051D02*
X115031326Y-57734345D01*
X115580387Y-56302827D02*
X116056978Y-57133386D01*
X115189280Y-57901249D02*
X116056139Y-57157334D01*
X115262958Y-57820583D02*
X115423222Y-58860169D01*
X116052241Y-59253703D02*
X115897528Y-59956011D01*
X116096438Y-60122733D02*
X116342718Y-59182783D01*
X115021401Y-60033634D02*
X116090179Y-60132212D01*
X115921700Y-59865799D02*
X114947036Y-59818470D01*
X115163610Y-59919267D02*
X114869901Y-60467189D01*
X114869901Y-60467189D02*
X114045326Y-59811143D01*
X113691677Y-59208764D02*
X114840095Y-60141244D01*
X109200546Y-60182738D02*
X109525666Y-60745862D01*
X109105302Y-60302251D02*
X109947783Y-59531350D01*
X109795794Y-58440059D02*
X109960549Y-59497582D01*
X109802734Y-58441918D02*
X108826744Y-57955414D01*
X108914652Y-57391395D02*
X110040829Y-57574151D01*
X113758282Y-59237768D02*
X113851301Y-59043282D01*
X113851301Y-59043282D02*
X113821257Y-58239405D01*
X113821257Y-58239405D02*
X113562177Y-57790665D01*
X113572927Y-57799123D02*
X113034004Y-57333042D01*
X113034004Y-57333042D02*
X112377233Y-57216562D01*
X112377233Y-57216562D02*
X111591118Y-57485650D01*
X111587308Y-57479051D02*
X111047439Y-58286411D01*
X111047439Y-58286411D02*
X111050248Y-59129476D01*
X111048389Y-59136416D02*
X111574253Y-59783080D01*
X111593893Y-59806936D02*
X111760372Y-59907326D01*
X111593893Y-59806936D02*
X111760372Y-59907326D01*
X111897957Y-59886551D02*
X112291237Y-60049571D01*
X112274064Y-59801387D02*
X112557468Y-59840137D01*
X113575359Y-59053017D02*
X113437939Y-59322998D01*
X113683905Y-59515344D02*
X113436079Y-59329937D01*
X110043959Y-57569412D02*
X110648864Y-56651179D01*
X111786610Y-59927373D02*
X112186125Y-60004672D01*
D24*
X111621739Y-61673807D02*
X111850299Y-60362805D01*
X109621899Y-60282623D02*
X110818854Y-59521170D01*
X109332384Y-57810129D02*
X110805581Y-58238340D01*
X110802441Y-55835142D02*
X111563761Y-57143626D01*
X113292898Y-55617379D02*
X112862827Y-57097515D01*
X115242983Y-57013825D02*
X114014733Y-57822675D01*
X112120500Y-61186407D02*
X112056257Y-60343615D01*
X111094597Y-60740451D02*
X111342902Y-60042767D01*
X110556446Y-60306186D02*
X111104464Y-59843141D01*
X110215708Y-59065771D02*
X110678467Y-58983372D01*
X110127458Y-58562397D02*
X110668185Y-58584563D01*
X110603322Y-57390177D02*
X110934172Y-57612706D01*
X110849931Y-56948637D02*
X111299912Y-57392747D01*
X111953004Y-56329376D02*
X112104530Y-57033786D01*
X112586866Y-56253776D02*
X112517285Y-56971458D01*
X113773505Y-56571735D02*
X113388861Y-57216153D01*
X114329187Y-57051605D02*
X113778131Y-57539868D01*
X114184604Y-58472500D02*
X114765873Y-58260088D01*
X114116991Y-58995471D02*
X114815350Y-58970623D01*
X114086585Y-59171405D02*
X115616177Y-59458537D01*
X114040865Y-59092216D02*
X114694786Y-59559361D01*
D10*
X98880952Y-68952380D02*
X98404761Y-68952380D01*
X98404761Y-67952380D01*
X99214285Y-68428571D02*
X99547619Y-68428571D01*
X99690476Y-68952380D02*
X99214285Y-68952380D01*
X99214285Y-67952380D01*
X99690476Y-67952380D01*
X100119047Y-68952380D02*
X100119047Y-67952380D01*
X100357142Y-67952380D01*
X100500000Y-68000000D01*
X100595238Y-68095238D01*
X100642857Y-68190476D01*
X100690476Y-68380952D01*
X100690476Y-68523809D01*
X100642857Y-68714285D01*
X100595238Y-68809523D01*
X100500000Y-68904761D01*
X100357142Y-68952380D01*
X100119047Y-68952380D01*
X101642857Y-68952380D02*
X101071428Y-68952380D01*
X101357142Y-68952380D02*
X101357142Y-67952380D01*
X101261904Y-68095238D01*
X101166666Y-68190476D01*
X101071428Y-68238095D01*
D14*
X103879047Y-72870476D02*
X103758095Y-72810000D01*
X103637142Y-72689047D01*
X103455714Y-72507619D01*
X103334761Y-72447142D01*
X103213809Y-72447142D01*
X103274285Y-72749523D02*
X103153333Y-72689047D01*
X103032380Y-72568095D01*
X102971904Y-72326190D01*
X102971904Y-71902857D01*
X103032380Y-71660952D01*
X103153333Y-71540000D01*
X103274285Y-71479523D01*
X103516190Y-71479523D01*
X103637142Y-71540000D01*
X103758095Y-71660952D01*
X103818571Y-71902857D01*
X103818571Y-72326190D01*
X103758095Y-72568095D01*
X103637142Y-72689047D01*
X103516190Y-72749523D01*
X103274285Y-72749523D01*
X104302380Y-71600476D02*
X104362857Y-71540000D01*
X104483809Y-71479523D01*
X104786190Y-71479523D01*
X104907142Y-71540000D01*
X104967619Y-71600476D01*
X105028095Y-71721428D01*
X105028095Y-71842380D01*
X104967619Y-72023809D01*
X104241904Y-72749523D01*
X105028095Y-72749523D01*
X95879047Y-72695476D02*
X95758095Y-72635000D01*
X95637142Y-72514047D01*
X95455714Y-72332619D01*
X95334761Y-72272142D01*
X95213809Y-72272142D01*
X95274285Y-72574523D02*
X95153333Y-72514047D01*
X95032380Y-72393095D01*
X94971904Y-72151190D01*
X94971904Y-71727857D01*
X95032380Y-71485952D01*
X95153333Y-71365000D01*
X95274285Y-71304523D01*
X95516190Y-71304523D01*
X95637142Y-71365000D01*
X95758095Y-71485952D01*
X95818571Y-71727857D01*
X95818571Y-72151190D01*
X95758095Y-72393095D01*
X95637142Y-72514047D01*
X95516190Y-72574523D01*
X95274285Y-72574523D01*
X97028095Y-72574523D02*
X96302380Y-72574523D01*
X96665238Y-72574523D02*
X96665238Y-71304523D01*
X96544285Y-71485952D01*
X96423333Y-71606904D01*
X96302380Y-71667380D01*
X105426219Y-57936095D02*
X106316695Y-57936095D01*
X106421457Y-57883714D01*
X106473838Y-57831333D01*
X106526219Y-57726571D01*
X106526219Y-57517047D01*
X106473838Y-57412285D01*
X106421457Y-57359904D01*
X106316695Y-57307523D01*
X105426219Y-57307523D01*
X106526219Y-56207523D02*
X106526219Y-56836095D01*
X106526219Y-56521809D02*
X105426219Y-56521809D01*
X105583361Y-56626571D01*
X105688123Y-56731333D01*
X105740504Y-56836095D01*
D16*
X99654666Y-58976190D02*
X99654666Y-58500000D01*
X99940380Y-59071428D02*
X98940380Y-58738095D01*
X99940380Y-58404761D01*
X98940380Y-58214285D02*
X98940380Y-57642857D01*
X99940380Y-57928571D02*
X98940380Y-57928571D01*
X99273714Y-57452380D02*
X99273714Y-57071428D01*
X98940380Y-57309523D02*
X99797523Y-57309523D01*
X99892761Y-57261904D01*
X99940380Y-57166666D01*
X99940380Y-57071428D01*
X99940380Y-56738095D02*
X99273714Y-56738095D01*
X98940380Y-56738095D02*
X98988000Y-56785714D01*
X99035619Y-56738095D01*
X98988000Y-56690476D01*
X98940380Y-56738095D01*
X99035619Y-56738095D01*
X99273714Y-56261904D02*
X99940380Y-56261904D01*
X99368952Y-56261904D02*
X99321333Y-56214285D01*
X99273714Y-56119047D01*
X99273714Y-55976190D01*
X99321333Y-55880952D01*
X99416571Y-55833333D01*
X99940380Y-55833333D01*
X99273714Y-55452380D02*
X99940380Y-55214285D01*
X99273714Y-54976190D02*
X99940380Y-55214285D01*
X100178476Y-55309523D01*
X100226095Y-55357142D01*
X100273714Y-55452380D01*
X101019952Y-56682428D02*
X100972333Y-56777666D01*
X100924714Y-56825285D01*
X100829476Y-56872904D01*
X100781857Y-56872904D01*
X100686619Y-56825285D01*
X100639000Y-56777666D01*
X100591380Y-56682428D01*
X100591380Y-56491952D01*
X100639000Y-56396714D01*
X100686619Y-56349095D01*
X100781857Y-56301476D01*
X100829476Y-56301476D01*
X100924714Y-56349095D01*
X100972333Y-56396714D01*
X101019952Y-56491952D01*
X101019952Y-56682428D01*
X101067571Y-56777666D01*
X101115190Y-56825285D01*
X101210428Y-56872904D01*
X101400904Y-56872904D01*
X101496142Y-56825285D01*
X101543761Y-56777666D01*
X101591380Y-56682428D01*
X101591380Y-56491952D01*
X101543761Y-56396714D01*
X101496142Y-56349095D01*
X101400904Y-56301476D01*
X101210428Y-56301476D01*
X101115190Y-56349095D01*
X101067571Y-56396714D01*
X101019952Y-56491952D01*
X100591380Y-55396714D02*
X100591380Y-55872904D01*
X101067571Y-55920523D01*
X101019952Y-55872904D01*
X100972333Y-55777666D01*
X100972333Y-55539571D01*
X101019952Y-55444333D01*
X101067571Y-55396714D01*
X101162809Y-55349095D01*
X101400904Y-55349095D01*
X101496142Y-55396714D01*
X101543761Y-55444333D01*
X101591380Y-55539571D01*
X101591380Y-55777666D01*
X101543761Y-55872904D01*
X101496142Y-55920523D01*
X87332249Y-65945314D02*
X87094154Y-66357707D01*
X86228128Y-65857707D01*
X87045283Y-65394734D02*
X87211950Y-65106059D01*
X87737011Y-65244245D02*
X87498916Y-65656639D01*
X86632890Y-65156639D01*
X86870986Y-64744245D01*
X87951297Y-64873092D02*
X87085271Y-64373092D01*
X87204319Y-64166895D01*
X87316987Y-64066987D01*
X87447084Y-64032127D01*
X87553373Y-64038507D01*
X87742139Y-64092506D01*
X87865857Y-64163934D01*
X88007005Y-64300412D01*
X88065674Y-64389270D01*
X88100534Y-64519368D01*
X88070344Y-64666895D01*
X87951297Y-64873092D01*
X87643940Y-63595925D02*
X87626511Y-63530876D01*
X87632890Y-63424588D01*
X87751938Y-63218391D01*
X87840796Y-63159722D01*
X87905845Y-63142292D01*
X88012133Y-63148672D01*
X88094612Y-63196291D01*
X88194520Y-63308959D01*
X88403678Y-64089545D01*
X88713201Y-63553434D01*
X107441331Y-66021871D02*
X107335043Y-66028250D01*
X107204946Y-65993391D01*
X107009799Y-65941101D01*
X106903511Y-65947481D01*
X106821032Y-65995100D01*
X106981319Y-66177487D02*
X106875031Y-66183867D01*
X106744934Y-66149007D01*
X106608456Y-66007860D01*
X106441789Y-65719185D01*
X106387791Y-65530418D01*
X106422650Y-65400320D01*
X106481319Y-65311462D01*
X106646277Y-65216224D01*
X106752565Y-65209844D01*
X106882662Y-65244704D01*
X107019140Y-65385851D01*
X107185806Y-65674526D01*
X107239805Y-65863293D01*
X107204946Y-65993391D01*
X107146277Y-66082249D01*
X106981319Y-66177487D01*
X107761447Y-64957280D02*
X108094781Y-65534630D01*
X107364775Y-64746413D02*
X107515721Y-65484050D01*
X108051832Y-65174526D01*
X92393710Y-65926632D02*
X92335041Y-65837774D01*
X92300182Y-65707676D01*
X92247892Y-65512530D01*
X92189223Y-65423672D01*
X92106745Y-65376053D01*
X92028936Y-65606059D02*
X91970267Y-65517200D01*
X91935408Y-65387103D01*
X91989407Y-65198336D01*
X92156073Y-64909661D01*
X92292551Y-64768513D01*
X92422648Y-64733653D01*
X92528936Y-64740033D01*
X92693894Y-64835271D01*
X92752563Y-64924130D01*
X92787422Y-65054227D01*
X92733423Y-65242994D01*
X92566757Y-65531669D01*
X92430279Y-65672817D01*
X92300182Y-65707676D01*
X92193894Y-65701297D01*
X92028936Y-65606059D01*
X93188765Y-65120986D02*
X93724876Y-65430509D01*
X93245725Y-65593757D01*
X93369443Y-65665186D01*
X93428112Y-65754044D01*
X93445542Y-65819093D01*
X93439162Y-65925381D01*
X93320114Y-66131578D01*
X93231256Y-66190247D01*
X93166207Y-66207676D01*
X93059919Y-66201297D01*
X92812483Y-66058440D01*
X92753814Y-65969581D01*
X92736384Y-65904532D01*
X111548702Y-64007066D02*
X111310607Y-63594673D01*
X112176632Y-63094673D01*
X112169001Y-64033837D02*
X112335668Y-64322512D01*
X111953464Y-64708134D02*
X111715369Y-64295741D01*
X112581394Y-63795741D01*
X112819490Y-64208134D01*
X112167750Y-65079288D02*
X113033775Y-64579288D01*
X113152823Y-64785485D01*
X113183012Y-64933012D01*
X113148153Y-65063110D01*
X113089484Y-65151968D01*
X112948336Y-65288446D01*
X112824618Y-65359874D01*
X112635851Y-65413873D01*
X112529563Y-65420253D01*
X112399465Y-65385393D01*
X112286798Y-65285485D01*
X112167750Y-65079288D01*
X113486156Y-65362835D02*
X113795680Y-65898946D01*
X113299099Y-65800747D01*
X113370528Y-65924465D01*
X113376907Y-66030753D01*
X113359478Y-66095802D01*
X113300808Y-66184660D01*
X113094612Y-66303708D01*
X112988324Y-66310088D01*
X112923275Y-66292658D01*
X112834417Y-66233989D01*
X112691559Y-65986553D01*
X112685180Y-65880265D01*
X112702609Y-65815216D01*
D14*
X99788333Y-38953571D02*
X99727857Y-39014047D01*
X99546428Y-39074523D01*
X99425476Y-39074523D01*
X99244047Y-39014047D01*
X99123095Y-38893095D01*
X99062619Y-38772142D01*
X99002142Y-38530238D01*
X99002142Y-38348809D01*
X99062619Y-38106904D01*
X99123095Y-37985952D01*
X99244047Y-37865000D01*
X99425476Y-37804523D01*
X99546428Y-37804523D01*
X99727857Y-37865000D01*
X99788333Y-37925476D01*
X100997857Y-39074523D02*
X100272142Y-39074523D01*
X100635000Y-39074523D02*
X100635000Y-37804523D01*
X100514047Y-37985952D01*
X100393095Y-38106904D01*
X100272142Y-38167380D01*
X96716666Y-29671428D02*
X96350000Y-29671428D01*
X96350000Y-30247619D02*
X96350000Y-29147619D01*
X96873809Y-29147619D01*
X97292857Y-29671428D02*
X97659523Y-29671428D01*
X97816666Y-30247619D02*
X97292857Y-30247619D01*
X97292857Y-29147619D01*
X97816666Y-29147619D01*
X98130952Y-29147619D02*
X98759523Y-29147619D01*
X98445238Y-30247619D02*
X98445238Y-29147619D01*
X99702380Y-30247619D02*
X99073809Y-30247619D01*
X99388095Y-30247619D02*
X99388095Y-29147619D01*
X99283333Y-29304761D01*
X99178571Y-29409523D01*
X99073809Y-29461904D01*
X100716666Y-29671428D02*
X100350000Y-29671428D01*
X100350000Y-30247619D02*
X100350000Y-29147619D01*
X100873809Y-29147619D01*
X101292857Y-29671428D02*
X101659523Y-29671428D01*
X101816666Y-30247619D02*
X101292857Y-30247619D01*
X101292857Y-29147619D01*
X101816666Y-29147619D01*
X102130952Y-29147619D02*
X102759523Y-29147619D01*
X102445238Y-30247619D02*
X102445238Y-29147619D01*
X103073809Y-29252380D02*
X103126190Y-29200000D01*
X103230952Y-29147619D01*
X103492857Y-29147619D01*
X103597619Y-29200000D01*
X103650000Y-29252380D01*
X103702380Y-29357142D01*
X103702380Y-29461904D01*
X103650000Y-29619047D01*
X103021428Y-30247619D01*
X103702380Y-30247619D01*
X99788333Y-62324523D02*
X99365000Y-61719761D01*
X99062619Y-62324523D02*
X99062619Y-61054523D01*
X99546428Y-61054523D01*
X99667380Y-61115000D01*
X99727857Y-61175476D01*
X99788333Y-61296428D01*
X99788333Y-61477857D01*
X99727857Y-61598809D01*
X99667380Y-61659285D01*
X99546428Y-61719761D01*
X99062619Y-61719761D01*
X100997857Y-62324523D02*
X100272142Y-62324523D01*
X100635000Y-62324523D02*
X100635000Y-61054523D01*
X100514047Y-61235952D01*
X100393095Y-61356904D01*
X100272142Y-61417380D01*
X102588333Y-62324523D02*
X102165000Y-61719761D01*
X101862619Y-62324523D02*
X101862619Y-61054523D01*
X102346428Y-61054523D01*
X102467380Y-61115000D01*
X102527857Y-61175476D01*
X102588333Y-61296428D01*
X102588333Y-61477857D01*
X102527857Y-61598809D01*
X102467380Y-61659285D01*
X102346428Y-61719761D01*
X101862619Y-61719761D01*
X103072142Y-61175476D02*
X103132619Y-61115000D01*
X103253571Y-61054523D01*
X103555952Y-61054523D01*
X103676904Y-61115000D01*
X103737380Y-61175476D01*
X103797857Y-61296428D01*
X103797857Y-61417380D01*
X103737380Y-61598809D01*
X103011666Y-62324523D01*
X103797857Y-62324523D01*
X92288333Y-61324523D02*
X91865000Y-60719761D01*
X91562619Y-61324523D02*
X91562619Y-60054523D01*
X92046428Y-60054523D01*
X92167380Y-60115000D01*
X92227857Y-60175476D01*
X92288333Y-60296428D01*
X92288333Y-60477857D01*
X92227857Y-60598809D01*
X92167380Y-60659285D01*
X92046428Y-60719761D01*
X91562619Y-60719761D01*
X92711666Y-60054523D02*
X93497857Y-60054523D01*
X93074523Y-60538333D01*
X93255952Y-60538333D01*
X93376904Y-60598809D01*
X93437380Y-60659285D01*
X93497857Y-60780238D01*
X93497857Y-61082619D01*
X93437380Y-61203571D01*
X93376904Y-61264047D01*
X93255952Y-61324523D01*
X92893095Y-61324523D01*
X92772142Y-61264047D01*
X92711666Y-61203571D01*
X107288333Y-61324523D02*
X106865000Y-60719761D01*
X106562619Y-61324523D02*
X106562619Y-60054523D01*
X107046428Y-60054523D01*
X107167380Y-60115000D01*
X107227857Y-60175476D01*
X107288333Y-60296428D01*
X107288333Y-60477857D01*
X107227857Y-60598809D01*
X107167380Y-60659285D01*
X107046428Y-60719761D01*
X106562619Y-60719761D01*
X108376904Y-60477857D02*
X108376904Y-61324523D01*
X108074523Y-59994047D02*
X107772142Y-60901190D01*
X108558333Y-60901190D01*
X96788333Y-62374523D02*
X96365000Y-61769761D01*
X96062619Y-62374523D02*
X96062619Y-61104523D01*
X96546428Y-61104523D01*
X96667380Y-61165000D01*
X96727857Y-61225476D01*
X96788333Y-61346428D01*
X96788333Y-61527857D01*
X96727857Y-61648809D01*
X96667380Y-61709285D01*
X96546428Y-61769761D01*
X96062619Y-61769761D01*
X97937380Y-61104523D02*
X97332619Y-61104523D01*
X97272142Y-61709285D01*
X97332619Y-61648809D01*
X97453571Y-61588333D01*
X97755952Y-61588333D01*
X97876904Y-61648809D01*
X97937380Y-61709285D01*
X97997857Y-61830238D01*
X97997857Y-62132619D01*
X97937380Y-62253571D01*
X97876904Y-62314047D01*
X97755952Y-62374523D01*
X97453571Y-62374523D01*
X97332619Y-62314047D01*
X97272142Y-62253571D01*
M02*
