M48
;DRILL file {KiCad 5.0.0-rc2-dev-unknown-6866c0c~65~ubuntu18.04.1} date Fri May 11 09:14:22 2018
;FORMAT={-:-/ absolute / inch / decimal}
FMAT,2
INCH,TZ
T1C0.0157
T2C0.0197
T3C0.0276
T4C0.0315
T5C0.0354
T6C0.0394
%
G90
G05
M72
T1
X3.4824Y-2.438
X3.6254Y-2.568
X3.6384Y-2.385
X3.7154Y-2.394
X3.741Y-2.2359
X3.7534Y-2.129
X3.8094Y-2.422
X3.8878Y-2.553
X3.8894Y-2.321
X3.8894Y-2.4496
X3.8979Y-1.403
X3.937Y-1.5433
X3.9394Y-1.923
X4.0011Y-2.2191
X4.0164Y-2.32
X4.0554Y-1.4005
X4.0864Y-2.359
X4.1664Y-2.27
X4.2414Y-2.412
T4
X3.887Y-2.815
X3.987Y-2.815
X4.0445Y-2.7165
X4.1445Y-2.7165
X3.7295Y-2.7165
X3.8295Y-2.7165
T5
X4.3897Y-2.0684
X4.4696Y-2.0683
T6
X3.4008Y-2.0669
X3.5008Y-2.0669
X3.6008Y-2.0669
X3.7008Y-2.0669
X3.8008Y-2.0669
X3.9008Y-2.0669
X4.0008Y-2.0669
X4.1008Y-2.0669
X4.2008Y-2.0669
T2
X3.532Y-1.5984G85X3.532Y-1.4882
G05
X4.342Y-1.5984G85X4.342Y-1.4882
G05
T3
X3.3406Y-1.378G85X3.4114Y-1.378
G05
X3.3406Y-1.8898G85X3.4114Y-1.8898
G05
X4.4626Y-1.8898G85X4.5335Y-1.8898
G05
X4.4626Y-1.378G85X4.5335Y-1.378
G05
T0
M30
