G04 #@! TF.GenerationSoftware,KiCad,Pcbnew,5.0.0-rc2-dev-unknown-6866c0c~65~ubuntu18.04.1*
G04 #@! TF.CreationDate,2018-05-11T09:14:19+03:00*
G04 #@! TF.ProjectId,MiniBot_RevA,4D696E69426F745F526576412E6B6963,rev?*
G04 #@! TF.SameCoordinates,Original*
G04 #@! TF.FileFunction,Legend,Bot*
G04 #@! TF.FilePolarity,Positive*
%FSLAX46Y46*%
G04 Gerber Fmt 4.6, Leading zero omitted, Abs format (unit mm)*
G04 Created by KiCad (PCBNEW 5.0.0-rc2-dev-unknown-6866c0c~65~ubuntu18.04.1) date Fri May 11 09:14:19 2018*
%MOMM*%
%LPD*%
G01*
G04 APERTURE LIST*
%ADD10C,0.200000*%
%ADD11C,0.120000*%
%ADD12C,0.150000*%
%ADD13C,0.450000*%
%ADD14C,0.300000*%
%ADD15C,0.254000*%
%ADD16C,0.400000*%
%ADD17C,0.127000*%
G04 APERTURE END LIST*
D10*
X103768000Y-63905200D02*
G75*
G02X104530000Y-63905200I381000J0D01*
G01*
X104530000Y-63905200D02*
X104530000Y-64794200D01*
X103768000Y-64667200D02*
X103768000Y-63905200D01*
D11*
X96560790Y-66730828D02*
X96522695Y-66807019D01*
X96522695Y-66959400D01*
X96560790Y-67035590D01*
X96598885Y-67073685D01*
X96675076Y-67111780D01*
X96903647Y-67111780D01*
X96979838Y-67073685D01*
X97017933Y-67035590D01*
X97056028Y-66959400D01*
X97056028Y-66807019D01*
X97017933Y-66730828D01*
X96522695Y-66273685D02*
X96560790Y-66349876D01*
X96636980Y-66387971D01*
X97322695Y-66387971D01*
X96560790Y-65664161D02*
X96522695Y-65740352D01*
X96522695Y-65892733D01*
X96560790Y-65968923D01*
X96636980Y-66007019D01*
X96941742Y-66007019D01*
X97017933Y-65968923D01*
X97056028Y-65892733D01*
X97056028Y-65740352D01*
X97017933Y-65664161D01*
X96941742Y-65626066D01*
X96865552Y-65626066D01*
X96789361Y-66007019D01*
X96522695Y-64940352D02*
X96941742Y-64940352D01*
X97017933Y-64978447D01*
X97056028Y-65054638D01*
X97056028Y-65207019D01*
X97017933Y-65283209D01*
X96560790Y-64940352D02*
X96522695Y-65016542D01*
X96522695Y-65207019D01*
X96560790Y-65283209D01*
X96636980Y-65321304D01*
X96713171Y-65321304D01*
X96789361Y-65283209D01*
X96827457Y-65207019D01*
X96827457Y-65016542D01*
X96865552Y-64940352D01*
X96522695Y-64559400D02*
X97056028Y-64559400D01*
X96903647Y-64559400D02*
X96979838Y-64521304D01*
X97017933Y-64483209D01*
X97056028Y-64407019D01*
X97056028Y-64330828D01*
X104815790Y-67238828D02*
X104777695Y-67315019D01*
X104777695Y-67467400D01*
X104815790Y-67543590D01*
X104853885Y-67581685D01*
X104930076Y-67619780D01*
X105158647Y-67619780D01*
X105234838Y-67581685D01*
X105272933Y-67543590D01*
X105311028Y-67467400D01*
X105311028Y-67315019D01*
X105272933Y-67238828D01*
X104777695Y-66781685D02*
X104815790Y-66857876D01*
X104891980Y-66895971D01*
X105577695Y-66895971D01*
X104815790Y-66172161D02*
X104777695Y-66248352D01*
X104777695Y-66400733D01*
X104815790Y-66476923D01*
X104891980Y-66515019D01*
X105196742Y-66515019D01*
X105272933Y-66476923D01*
X105311028Y-66400733D01*
X105311028Y-66248352D01*
X105272933Y-66172161D01*
X105196742Y-66134066D01*
X105120552Y-66134066D01*
X105044361Y-66515019D01*
X104777695Y-65448352D02*
X105196742Y-65448352D01*
X105272933Y-65486447D01*
X105311028Y-65562638D01*
X105311028Y-65715019D01*
X105272933Y-65791209D01*
X104815790Y-65448352D02*
X104777695Y-65524542D01*
X104777695Y-65715019D01*
X104815790Y-65791209D01*
X104891980Y-65829304D01*
X104968171Y-65829304D01*
X105044361Y-65791209D01*
X105082457Y-65715019D01*
X105082457Y-65524542D01*
X105120552Y-65448352D01*
X104777695Y-65067400D02*
X105311028Y-65067400D01*
X105158647Y-65067400D02*
X105234838Y-65029304D01*
X105272933Y-64991209D01*
X105311028Y-64915019D01*
X105311028Y-64838828D01*
D12*
X100383495Y-68883504D02*
X100916828Y-68883504D01*
X100764447Y-68883504D02*
X100840638Y-68845409D01*
X100878733Y-68807314D01*
X100916828Y-68731123D01*
X100916828Y-68654933D01*
X100421590Y-68083504D02*
X100383495Y-68159695D01*
X100383495Y-68312076D01*
X100421590Y-68388266D01*
X100497780Y-68426361D01*
X100802542Y-68426361D01*
X100878733Y-68388266D01*
X100916828Y-68312076D01*
X100916828Y-68159695D01*
X100878733Y-68083504D01*
X100802542Y-68045409D01*
X100726352Y-68045409D01*
X100650161Y-68426361D01*
X100383495Y-67359695D02*
X101183495Y-67359695D01*
X100421590Y-67359695D02*
X100383495Y-67435885D01*
X100383495Y-67588266D01*
X100421590Y-67664457D01*
X100459685Y-67702552D01*
X100535876Y-67740647D01*
X100764447Y-67740647D01*
X100840638Y-67702552D01*
X100878733Y-67664457D01*
X100916828Y-67588266D01*
X100916828Y-67435885D01*
X100878733Y-67359695D01*
D10*
X103895000Y-64794200D02*
X103895000Y-68350200D01*
X104784000Y-64794200D02*
X103514000Y-64794200D01*
X104403000Y-64794200D02*
X104403000Y-67334200D01*
X96529000Y-64210000D02*
X95259000Y-64210000D01*
X96148000Y-64210000D02*
X96148000Y-67766000D01*
X96275000Y-63321000D02*
X96275000Y-64210000D01*
X95513000Y-63321000D02*
G75*
G02X96275000Y-63321000I381000J0D01*
G01*
X95640000Y-64210000D02*
X95640000Y-66750000D01*
X95513000Y-64083000D02*
X95513000Y-63321000D01*
X99577000Y-66750000D02*
X99577000Y-69290000D01*
X100085000Y-66750000D02*
X100085000Y-70306000D01*
X99450000Y-65861000D02*
G75*
G02X100212000Y-65861000I381000J0D01*
G01*
X100212000Y-65861000D02*
X100212000Y-66750000D01*
X99450000Y-66623000D02*
X99450000Y-65861000D01*
X100466000Y-66750000D02*
X99196000Y-66750000D01*
D13*
X114575026Y-61081952D02*
X115517835Y-60139143D01*
X115383148Y-60273830D02*
X115389882Y-60145878D01*
X115336007Y-59957316D01*
X115154180Y-59775488D01*
X114965618Y-59721614D01*
X114770322Y-59795692D01*
X114029544Y-60536470D01*
X114770322Y-59795692D02*
X114844400Y-59600395D01*
X114790525Y-59411834D01*
X114608698Y-59230006D01*
X114420136Y-59176131D01*
X114224840Y-59250209D01*
X113484061Y-59990988D01*
X112877970Y-59384896D02*
X113820779Y-58442087D01*
X114292183Y-57970683D02*
X114285449Y-58098635D01*
X114157496Y-58105370D01*
X114164231Y-57977417D01*
X114292183Y-57970683D01*
X114157496Y-58105370D01*
X113214687Y-57835996D02*
X112271878Y-58778805D01*
X113080000Y-57970683D02*
X113086734Y-57842730D01*
X113032860Y-57654168D01*
X112851032Y-57472341D01*
X112662470Y-57418466D01*
X112467174Y-57492544D01*
X111726396Y-58233322D01*
X111120304Y-57627231D02*
X112063113Y-56684422D01*
X112534518Y-56213017D02*
X112527783Y-56340970D01*
X112399831Y-56347704D01*
X112406565Y-56219752D01*
X112534518Y-56213017D01*
X112399831Y-56347704D01*
X110514213Y-57021139D02*
X111928426Y-55606926D01*
X111389678Y-56145674D02*
X111335803Y-55957112D01*
X111093367Y-55714675D01*
X110904805Y-55660800D01*
X110776852Y-55667535D01*
X110581556Y-55741613D01*
X110177495Y-56145674D01*
X110103417Y-56340970D01*
X110096683Y-56468922D01*
X110150558Y-56657484D01*
X110392994Y-56899921D01*
X110581556Y-56953796D01*
X109180811Y-55687738D02*
X109369373Y-55741613D01*
X109497326Y-55734878D01*
X109692622Y-55660800D01*
X110096683Y-55256739D01*
X110170761Y-55061443D01*
X110177495Y-54933491D01*
X110123620Y-54744929D01*
X109941793Y-54563101D01*
X109753231Y-54509227D01*
X109625278Y-54515961D01*
X109429982Y-54590039D01*
X109025921Y-54994100D01*
X108951843Y-55189396D01*
X108945109Y-55317349D01*
X108998984Y-55505910D01*
X109180811Y-55687738D01*
X109335701Y-53957010D02*
X108850828Y-53472137D01*
X109625278Y-53303778D02*
X108413095Y-54515961D01*
X108217799Y-54590039D01*
X108029237Y-54536164D01*
X107908019Y-54414946D01*
D14*
X113932495Y-63421540D02*
X114084018Y-63472047D01*
X114185033Y-63472047D01*
X114336556Y-63421540D01*
X114639602Y-63118494D01*
X114690109Y-62966971D01*
X114690109Y-62865956D01*
X114639602Y-62714433D01*
X114488079Y-62562910D01*
X114336556Y-62512402D01*
X114235541Y-62512402D01*
X114084018Y-62562910D01*
X113780972Y-62865956D01*
X113730464Y-63017479D01*
X113730464Y-63118494D01*
X113780972Y-63270017D01*
X113932495Y-63421540D01*
X112972850Y-62461895D02*
X113124373Y-62512402D01*
X113275896Y-62461895D01*
X114185033Y-61552758D01*
X112568789Y-62057834D02*
X113275896Y-61350727D01*
X113629449Y-60997174D02*
X113629449Y-61098189D01*
X113528434Y-61098189D01*
X113528434Y-60997174D01*
X113629449Y-60997174D01*
X113528434Y-61098189D01*
X112063713Y-61552758D02*
X112770819Y-60845651D01*
X112669804Y-60946666D02*
X112669804Y-60845651D01*
X112619297Y-60694128D01*
X112467774Y-60542605D01*
X112316251Y-60492097D01*
X112164728Y-60542605D01*
X111609144Y-61098189D01*
X112164728Y-60542605D02*
X112215236Y-60391082D01*
X112164728Y-60239559D01*
X112013205Y-60088036D01*
X111861682Y-60037529D01*
X111710159Y-60088036D01*
X111154575Y-60643620D01*
X110295946Y-59683975D02*
X110346453Y-59835498D01*
X110548484Y-60037529D01*
X110700007Y-60088036D01*
X110851530Y-60037529D01*
X111255591Y-59633468D01*
X111306098Y-59481945D01*
X111255591Y-59330422D01*
X111053560Y-59128391D01*
X110902037Y-59077884D01*
X110750514Y-59128391D01*
X110649499Y-59229407D01*
X111053560Y-59835498D01*
X109841377Y-59330422D02*
X109992900Y-58067731D01*
X110548484Y-58623315D02*
X109285793Y-58774838D01*
X108982747Y-58269762D02*
X108881732Y-58269762D01*
X108881732Y-58370777D01*
X108982747Y-58370777D01*
X108982747Y-58269762D01*
X108881732Y-58370777D01*
X107972595Y-57360624D02*
X108023102Y-57512147D01*
X108225133Y-57714178D01*
X108376656Y-57764686D01*
X108477671Y-57764686D01*
X108629194Y-57714178D01*
X108932240Y-57411132D01*
X108982747Y-57259609D01*
X108982747Y-57158594D01*
X108932240Y-57007071D01*
X108730209Y-56805041D01*
X108578686Y-56754533D01*
X107315996Y-56805041D02*
X107467519Y-56855548D01*
X107568534Y-56855548D01*
X107720057Y-56805041D01*
X108023102Y-56501995D01*
X108073610Y-56350472D01*
X108073610Y-56249457D01*
X108023102Y-56097934D01*
X107871580Y-55946411D01*
X107720057Y-55895903D01*
X107619041Y-55895903D01*
X107467519Y-55946411D01*
X107164473Y-56249457D01*
X107113965Y-56400980D01*
X107113965Y-56501995D01*
X107164473Y-56653518D01*
X107315996Y-56805041D01*
X106507874Y-55996919D02*
X107214980Y-55289812D01*
X107113965Y-55390827D02*
X107113965Y-55289812D01*
X107063458Y-55138289D01*
X106911935Y-54986766D01*
X106760412Y-54936258D01*
X106608889Y-54986766D01*
X106053305Y-55542350D01*
X106608889Y-54986766D02*
X106659397Y-54835243D01*
X106608889Y-54683720D01*
X106457366Y-54532197D01*
X106305843Y-54481690D01*
X106154320Y-54532197D01*
X105598736Y-55087781D01*
X88934369Y-57465030D02*
X89085892Y-58323660D01*
X88328277Y-58071122D02*
X89388938Y-59131782D01*
X89792999Y-58727721D01*
X89843506Y-58576198D01*
X89843506Y-58475183D01*
X89792999Y-58323660D01*
X89641476Y-58172137D01*
X89489953Y-58121629D01*
X89388938Y-58121629D01*
X89237415Y-58172137D01*
X88833354Y-58576198D01*
X89540461Y-56858939D02*
X89489953Y-57010461D01*
X89489953Y-57111477D01*
X89540461Y-57263000D01*
X89843506Y-57566045D01*
X89995029Y-57616553D01*
X90096044Y-57616553D01*
X90247567Y-57566045D01*
X90399090Y-57414522D01*
X90449598Y-57263000D01*
X90449598Y-57161984D01*
X90399090Y-57010461D01*
X90096044Y-56707416D01*
X89944522Y-56656908D01*
X89843506Y-56656908D01*
X89691983Y-56707416D01*
X89540461Y-56858939D01*
X90348583Y-56050817D02*
X91409243Y-57111477D01*
X90904166Y-56606400D02*
X91510258Y-56000309D01*
X90954674Y-55444725D02*
X92015334Y-56505385D01*
X91459750Y-55040664D02*
X91560766Y-54838633D01*
X91813304Y-54586095D01*
X91964827Y-54535588D01*
X92065842Y-54535588D01*
X92217365Y-54586095D01*
X92318380Y-54687111D01*
X92368888Y-54838633D01*
X92368888Y-54939649D01*
X92318380Y-55091172D01*
X92166857Y-55343710D01*
X92116350Y-55495233D01*
X92116350Y-55596248D01*
X92166857Y-55747771D01*
X92267872Y-55848786D01*
X92419395Y-55899294D01*
X92520411Y-55899294D01*
X92671933Y-55848786D01*
X92924472Y-55596248D01*
X93025487Y-55394217D01*
X88121428Y-46000000D02*
X88835714Y-46500000D01*
X88121428Y-46857142D02*
X89621428Y-46857142D01*
X89621428Y-46285714D01*
X89550000Y-46142857D01*
X89478571Y-46071428D01*
X89335714Y-46000000D01*
X89121428Y-46000000D01*
X88978571Y-46071428D01*
X88907142Y-46142857D01*
X88835714Y-46285714D01*
X88835714Y-46857142D01*
X88192857Y-44785714D02*
X88121428Y-44928571D01*
X88121428Y-45214285D01*
X88192857Y-45357142D01*
X88335714Y-45428571D01*
X88907142Y-45428571D01*
X89050000Y-45357142D01*
X89121428Y-45214285D01*
X89121428Y-44928571D01*
X89050000Y-44785714D01*
X88907142Y-44714285D01*
X88764285Y-44714285D01*
X88621428Y-45428571D01*
X89121428Y-44214285D02*
X88121428Y-43857142D01*
X89121428Y-43500000D01*
X88264285Y-42928571D02*
X88192857Y-42857142D01*
X88121428Y-42928571D01*
X88192857Y-43000000D01*
X88264285Y-42928571D01*
X88121428Y-42928571D01*
X88550000Y-42285714D02*
X88550000Y-41571428D01*
X88121428Y-42428571D02*
X89621428Y-41928571D01*
X88121428Y-41428571D01*
X110292857Y-30878571D02*
X109364285Y-30878571D01*
X109864285Y-31450000D01*
X109650000Y-31450000D01*
X109507142Y-31521428D01*
X109435714Y-31592857D01*
X109364285Y-31735714D01*
X109364285Y-32092857D01*
X109435714Y-32235714D01*
X109507142Y-32307142D01*
X109650000Y-32378571D01*
X110078571Y-32378571D01*
X110221428Y-32307142D01*
X110292857Y-32235714D01*
X108935714Y-30878571D02*
X108435714Y-32378571D01*
X107935714Y-30878571D01*
D10*
X83890090Y-33990991D02*
G75*
G03X85000000Y-36500000I1109910J-1009009D01*
G01*
X87000000Y-36500000D02*
X85000000Y-36500000D01*
X87000000Y-36500000D02*
G75*
G02X87500000Y-37000000I0J-500000D01*
G01*
X87500000Y-46000000D02*
G75*
G02X87000000Y-46500000I-500000J0D01*
G01*
X87500000Y-37000000D02*
X87500000Y-46000000D01*
X83500000Y-48000000D02*
G75*
G02X85000000Y-46500000I1500000J0D01*
G01*
X85000000Y-46500000D02*
X87000000Y-46500000D01*
X83500000Y-48000000D02*
X83507351Y-53003128D01*
X83300001Y-54000001D02*
G75*
G03X83507351Y-53003128I-2292650J996873D01*
G01*
X116699999Y-54000001D02*
G75*
G02X83300001Y-54000001I-16699999J-2999999D01*
G01*
X83888575Y-33986445D02*
G75*
G02X116080000Y-33960000I16111425J-19113555D01*
G01*
X113000000Y-46500000D02*
G75*
G02X112500000Y-46000000I0J500000D01*
G01*
X112500000Y-37000000D02*
G75*
G02X113000000Y-36500000I500000J0D01*
G01*
X116085033Y-33964287D02*
G75*
G02X115000000Y-36500000I-1085033J-1035713D01*
G01*
X115000000Y-46500000D02*
G75*
G02X116500000Y-48000000I0J-1500000D01*
G01*
X116700158Y-54005537D02*
G75*
G02X116489021Y-53000000I2288863J1005537D01*
G01*
X116500000Y-48000000D02*
X116490000Y-53000000D01*
X113000000Y-46500000D02*
X115000000Y-46500000D01*
X112500000Y-37000000D02*
X112500000Y-46000000D01*
X115000000Y-36500000D02*
X113000000Y-36500000D01*
D15*
X97773600Y-58469600D02*
G75*
G02X97519600Y-58215600I0J254000D01*
G01*
X100821600Y-58215600D02*
G75*
G02X100567600Y-58469600I-254000J0D01*
G01*
X100567600Y-56437600D02*
G75*
G02X100821600Y-56691600I0J-254000D01*
G01*
X97519600Y-56691600D02*
G75*
G02X97773600Y-56437600I254000J0D01*
G01*
X100567600Y-56437600D02*
X97773600Y-56437600D01*
X100821600Y-58215600D02*
X100821600Y-56691600D01*
X97519600Y-58215600D02*
X97519600Y-56691600D01*
X97773600Y-58469600D02*
X100567600Y-58469600D01*
X109753600Y-41486000D02*
G75*
G02X97714000Y-48953600I-9753600J2286000D01*
G01*
X90221000Y-37091800D02*
G75*
G02X102108200Y-29421000I9779000J-2108200D01*
G01*
X97815600Y-29421000D02*
G75*
G02X109779000Y-37015600I2184400J-9779000D01*
G01*
D16*
X102050000Y-49400000D02*
X97950000Y-49400000D01*
D15*
X102057400Y-49055200D02*
G75*
G02X90348000Y-41359000I-2006600J9702800D01*
G01*
D14*
X102108200Y-49436200D02*
X102108200Y-49055200D01*
X97891800Y-49436200D02*
X97891800Y-49055200D01*
X98069600Y-49461600D02*
X98069600Y-49080600D01*
X101930400Y-49461600D02*
X101930400Y-49080600D01*
D15*
X92380000Y-31326000D02*
X91872000Y-31326000D01*
X92634000Y-31072000D02*
X91618000Y-31072000D01*
X92888000Y-30818000D02*
X91364000Y-30818000D01*
X93142000Y-30564000D02*
X91110000Y-30564000D01*
X92126000Y-31580000D02*
X93396000Y-30310000D01*
X93396000Y-30310000D02*
X90856000Y-30310000D01*
X90856000Y-30310000D02*
X92126000Y-31580000D01*
D12*
X89170148Y-63665295D02*
X86947648Y-67514778D01*
X91369852Y-64935295D02*
X89170148Y-63665295D01*
X89147352Y-68784778D02*
X91369852Y-64935295D01*
X106630148Y-66935295D02*
X108852648Y-70784778D01*
X108829852Y-65665295D02*
X106630148Y-66935295D01*
X111052352Y-69514778D02*
X108829852Y-65665295D01*
X91147352Y-70784778D02*
X93369852Y-66935295D01*
X93369852Y-66935295D02*
X91170148Y-65665295D01*
X91170148Y-65665295D02*
X88947648Y-69514778D01*
X108630148Y-64935295D02*
X110852648Y-68784778D01*
X110829852Y-63665295D02*
X108630148Y-64935295D01*
X113052352Y-67514778D02*
X110829852Y-63665295D01*
D15*
X97773600Y-56437600D02*
X100567600Y-56437600D01*
X97519600Y-56183600D02*
X97519600Y-54659600D01*
X100821600Y-56183600D02*
X100821600Y-54659600D01*
X100567600Y-54405600D02*
X97773600Y-54405600D01*
X97519600Y-54659600D02*
G75*
G02X97773600Y-54405600I254000J0D01*
G01*
X100567600Y-54405600D02*
G75*
G02X100821600Y-54659600I0J-254000D01*
G01*
X100821600Y-56183600D02*
G75*
G02X100567600Y-56437600I-254000J0D01*
G01*
X97773600Y-56437600D02*
G75*
G02X97519600Y-56183600I0J254000D01*
G01*
X85484000Y-54603000D02*
G75*
G02X85738000Y-54349000I254000J0D01*
G01*
X85738000Y-57651000D02*
G75*
G02X85484000Y-57397000I0J254000D01*
G01*
X87516000Y-57397000D02*
G75*
G02X87262000Y-57651000I-254000J0D01*
G01*
X87262000Y-54349000D02*
G75*
G02X87516000Y-54603000I0J-254000D01*
G01*
X87516000Y-57397000D02*
X87516000Y-54603000D01*
X85738000Y-57651000D02*
X87262000Y-57651000D01*
X85738000Y-54349000D02*
X87262000Y-54349000D01*
X85484000Y-54603000D02*
X85484000Y-57397000D01*
D12*
X90373231Y-59149562D02*
X89834416Y-59688377D01*
X93606124Y-62382454D02*
X90373231Y-59149562D01*
X93067308Y-62921270D02*
X93606124Y-62382454D01*
X89834416Y-59688377D02*
X93067308Y-62921270D01*
X90373231Y-59221404D02*
X93498361Y-62346533D01*
X93462439Y-62454296D02*
X90301389Y-59293246D01*
X90193626Y-59401009D02*
X93318755Y-62526138D01*
X90085863Y-59508772D02*
X93210992Y-62633901D01*
X93426518Y-62490217D02*
X90301389Y-59365088D01*
X93318755Y-62597980D02*
X90157705Y-59436930D01*
X90049942Y-59616535D02*
X93139150Y-62705743D01*
X93103229Y-62813506D02*
X89978100Y-59688377D01*
D15*
X96837602Y-58859648D02*
X90910633Y-58859648D01*
X93874117Y-61643528D02*
X93784314Y-55985966D01*
X93425104Y-60655699D02*
X92437276Y-59667871D01*
X93425104Y-60655699D02*
X95759971Y-58680043D01*
X96029379Y-58769846D02*
X93963920Y-56704387D01*
X92796486Y-60565897D02*
X92976091Y-60386292D01*
X93155697Y-60925107D02*
X92796486Y-60565897D01*
X93425104Y-60655699D02*
X93155697Y-60925107D01*
X92437276Y-58949451D02*
X93784314Y-57422807D01*
X92479675Y-59308661D02*
G75*
G03X92479675Y-59308661I-401609J0D01*
G01*
X96029379Y-57871820D02*
X95670168Y-58231030D01*
X96119181Y-57961623D02*
X96029379Y-57871820D01*
X95759971Y-58320833D02*
X96119181Y-57961623D01*
X93604709Y-57063597D02*
X93963920Y-56704387D01*
X93874117Y-57333005D02*
X93604709Y-57063597D01*
X94233327Y-56973794D02*
X93874117Y-57333005D01*
X94053722Y-56973794D02*
X93963920Y-57063597D01*
X94143525Y-56883992D02*
X93784314Y-57063597D01*
X94053722Y-56973794D02*
X93963920Y-57063597D01*
X93963920Y-56883992D02*
X93694512Y-57153400D01*
X94053722Y-56973794D02*
X93963920Y-56883992D01*
X93784314Y-57243202D02*
X94053722Y-56973794D01*
X94502735Y-58500438D02*
X94772143Y-58231030D01*
X93874117Y-57871820D02*
X94502735Y-58500438D01*
X94143525Y-57602412D02*
X93874117Y-57871820D01*
X94772143Y-58231030D02*
X94143525Y-57602412D01*
X94592538Y-58231030D02*
X94143525Y-57782017D01*
X95490563Y-56973794D02*
X95759971Y-57243202D01*
X95400761Y-57063597D02*
X95490563Y-56973794D01*
X95670168Y-57333005D02*
X95400761Y-57063597D01*
X95759971Y-57243202D02*
X95670168Y-57333005D01*
X94323130Y-56883992D02*
G75*
G02X95939576Y-58500438I0J-1616446D01*
G01*
D17*
X92205067Y-59308661D02*
G75*
G03X92205067Y-59308661I-127001J0D01*
G01*
D15*
X89045631Y-61489374D02*
G75*
G03X89045631Y-61489374I-1802237J0D01*
G01*
D10*
X88886781Y-61487578D02*
X85454527Y-61478597D01*
D15*
X102244000Y-54177000D02*
X102244000Y-56971000D01*
X102498000Y-53923000D02*
X104022000Y-53923000D01*
X102498000Y-57225000D02*
X104022000Y-57225000D01*
X104276000Y-56971000D02*
X104276000Y-54177000D01*
X104022000Y-53923000D02*
G75*
G02X104276000Y-54177000I0J-254000D01*
G01*
X104276000Y-56971000D02*
G75*
G02X104022000Y-57225000I-254000J0D01*
G01*
X102498000Y-57225000D02*
G75*
G02X102244000Y-56971000I0J254000D01*
G01*
X102244000Y-54177000D02*
G75*
G02X102498000Y-53923000I254000J0D01*
G01*
X104555400Y-61212800D02*
G75*
G02X104301400Y-60958800I0J254000D01*
G01*
X107603400Y-60958800D02*
G75*
G02X107349400Y-61212800I-254000J0D01*
G01*
X107349400Y-59180800D02*
G75*
G02X107603400Y-59434800I0J-254000D01*
G01*
X104301400Y-59434800D02*
G75*
G02X104555400Y-59180800I254000J0D01*
G01*
X107349400Y-59180800D02*
X104555400Y-59180800D01*
X107603400Y-60958800D02*
X107603400Y-59434800D01*
X104301400Y-60958800D02*
X104301400Y-59434800D01*
X104555400Y-61212800D02*
X107349400Y-61212800D01*
X104580800Y-63244800D02*
X107374800Y-63244800D01*
X104326800Y-62990800D02*
X104326800Y-61466800D01*
X107628800Y-62990800D02*
X107628800Y-61466800D01*
X107374800Y-61212800D02*
X104580800Y-61212800D01*
X104326800Y-61466800D02*
G75*
G02X104580800Y-61212800I254000J0D01*
G01*
X107374800Y-61212800D02*
G75*
G02X107628800Y-61466800I0J-254000D01*
G01*
X107628800Y-62990800D02*
G75*
G02X107374800Y-63244800I-254000J0D01*
G01*
X104580800Y-63244800D02*
G75*
G02X104326800Y-62990800I0J254000D01*
G01*
D10*
X100059485Y-59911009D02*
X99945200Y-59949104D01*
X99754723Y-59949104D01*
X99678533Y-59911009D01*
X99640438Y-59872914D01*
X99602342Y-59796723D01*
X99602342Y-59720533D01*
X99640438Y-59644342D01*
X99678533Y-59606247D01*
X99754723Y-59568152D01*
X99907104Y-59530057D01*
X99983295Y-59491961D01*
X100021390Y-59453866D01*
X100059485Y-59377676D01*
X100059485Y-59301485D01*
X100021390Y-59225295D01*
X99983295Y-59187200D01*
X99907104Y-59149104D01*
X99716628Y-59149104D01*
X99602342Y-59187200D01*
X99030914Y-59149104D02*
X99030914Y-59720533D01*
X99069009Y-59834819D01*
X99145200Y-59911009D01*
X99259485Y-59949104D01*
X99335676Y-59949104D01*
X98726152Y-59149104D02*
X98230914Y-59149104D01*
X98497580Y-59453866D01*
X98383295Y-59453866D01*
X98307104Y-59491961D01*
X98269009Y-59530057D01*
X98230914Y-59606247D01*
X98230914Y-59796723D01*
X98269009Y-59872914D01*
X98307104Y-59911009D01*
X98383295Y-59949104D01*
X98611866Y-59949104D01*
X98688057Y-59911009D01*
X98726152Y-59872914D01*
D15*
X111903857Y-38704761D02*
X111903857Y-39695238D01*
X112399095Y-39200000D02*
X111408619Y-39200000D01*
X88408857Y-38704761D02*
X88408857Y-39695238D01*
X88904095Y-39200000D02*
X87913619Y-39200000D01*
D14*
X100761904Y-30198857D02*
X99238095Y-30198857D01*
D10*
X97163885Y-55720009D02*
X97049600Y-55758104D01*
X96859123Y-55758104D01*
X96782933Y-55720009D01*
X96744838Y-55681914D01*
X96706742Y-55605723D01*
X96706742Y-55529533D01*
X96744838Y-55453342D01*
X96782933Y-55415247D01*
X96859123Y-55377152D01*
X97011504Y-55339057D01*
X97087695Y-55300961D01*
X97125790Y-55262866D01*
X97163885Y-55186676D01*
X97163885Y-55110485D01*
X97125790Y-55034295D01*
X97087695Y-54996200D01*
X97011504Y-54958104D01*
X96821028Y-54958104D01*
X96706742Y-54996200D01*
X96135314Y-54958104D02*
X96135314Y-55529533D01*
X96173409Y-55643819D01*
X96249600Y-55720009D01*
X96363885Y-55758104D01*
X96440076Y-55758104D01*
X95335314Y-55758104D02*
X95792457Y-55758104D01*
X95563885Y-55758104D02*
X95563885Y-54958104D01*
X95640076Y-55072390D01*
X95716266Y-55148580D01*
X95792457Y-55186676D01*
X87364285Y-58723809D02*
X87250000Y-58761904D01*
X87059523Y-58761904D01*
X86983333Y-58723809D01*
X86945238Y-58685714D01*
X86907142Y-58609523D01*
X86907142Y-58533333D01*
X86945238Y-58457142D01*
X86983333Y-58419047D01*
X87059523Y-58380952D01*
X87211904Y-58342857D01*
X87288095Y-58304761D01*
X87326190Y-58266666D01*
X87364285Y-58190476D01*
X87364285Y-58114285D01*
X87326190Y-58038095D01*
X87288095Y-58000000D01*
X87211904Y-57961904D01*
X87021428Y-57961904D01*
X86907142Y-58000000D01*
X86335714Y-57961904D02*
X86335714Y-58533333D01*
X86373809Y-58647619D01*
X86450000Y-58723809D01*
X86564285Y-58761904D01*
X86640476Y-58761904D01*
X85992857Y-58038095D02*
X85954761Y-58000000D01*
X85878571Y-57961904D01*
X85688095Y-57961904D01*
X85611904Y-58000000D01*
X85573809Y-58038095D01*
X85535714Y-58114285D01*
X85535714Y-58190476D01*
X85573809Y-58304761D01*
X86030952Y-58761904D01*
X85535714Y-58761904D01*
D15*
X87388960Y-62693800D02*
X88591042Y-61491718D01*
X88186981Y-61087657D01*
X88028723Y-61043884D01*
X87920974Y-61050618D01*
X87755982Y-61114595D01*
X87584256Y-61286320D01*
X87520280Y-61451312D01*
X87513546Y-61559062D01*
X87557319Y-61717319D01*
X87961380Y-62121380D01*
X86328300Y-61633140D02*
X87530381Y-60431058D01*
X87072446Y-60888994D02*
X87028672Y-60730737D01*
X86826642Y-60528706D01*
X86668385Y-60484933D01*
X86560635Y-60491667D01*
X86395643Y-60555643D01*
X86052192Y-60899095D01*
X85988215Y-61064087D01*
X85981481Y-61171837D01*
X86025254Y-61330094D01*
X86227285Y-61532124D01*
X86385542Y-61575898D01*
D10*
X104225085Y-58412409D02*
X104110800Y-58450504D01*
X103920323Y-58450504D01*
X103844133Y-58412409D01*
X103806038Y-58374314D01*
X103767942Y-58298123D01*
X103767942Y-58221933D01*
X103806038Y-58145742D01*
X103844133Y-58107647D01*
X103920323Y-58069552D01*
X104072704Y-58031457D01*
X104148895Y-57993361D01*
X104186990Y-57955266D01*
X104225085Y-57879076D01*
X104225085Y-57802885D01*
X104186990Y-57726695D01*
X104148895Y-57688600D01*
X104072704Y-57650504D01*
X103882228Y-57650504D01*
X103767942Y-57688600D01*
X103196514Y-57650504D02*
X103196514Y-58221933D01*
X103234609Y-58336219D01*
X103310800Y-58412409D01*
X103425085Y-58450504D01*
X103501276Y-58450504D01*
X102472704Y-57917171D02*
X102472704Y-58450504D01*
X102663180Y-57612409D02*
X102853657Y-58183838D01*
X102358419Y-58183838D01*
X103894885Y-60520609D02*
X103780600Y-60558704D01*
X103590123Y-60558704D01*
X103513933Y-60520609D01*
X103475838Y-60482514D01*
X103437742Y-60406323D01*
X103437742Y-60330133D01*
X103475838Y-60253942D01*
X103513933Y-60215847D01*
X103590123Y-60177752D01*
X103742504Y-60139657D01*
X103818695Y-60101561D01*
X103856790Y-60063466D01*
X103894885Y-59987276D01*
X103894885Y-59911085D01*
X103856790Y-59834895D01*
X103818695Y-59796800D01*
X103742504Y-59758704D01*
X103552028Y-59758704D01*
X103437742Y-59796800D01*
X102866314Y-59758704D02*
X102866314Y-60330133D01*
X102904409Y-60444419D01*
X102980600Y-60520609D01*
X103094885Y-60558704D01*
X103171076Y-60558704D01*
X102104409Y-59758704D02*
X102485361Y-59758704D01*
X102523457Y-60139657D01*
X102485361Y-60101561D01*
X102409171Y-60063466D01*
X102218695Y-60063466D01*
X102142504Y-60101561D01*
X102104409Y-60139657D01*
X102066314Y-60215847D01*
X102066314Y-60406323D01*
X102104409Y-60482514D01*
X102142504Y-60520609D01*
X102218695Y-60558704D01*
X102409171Y-60558704D01*
X102485361Y-60520609D01*
X102523457Y-60482514D01*
X103920285Y-62527209D02*
X103806000Y-62565304D01*
X103615523Y-62565304D01*
X103539333Y-62527209D01*
X103501238Y-62489114D01*
X103463142Y-62412923D01*
X103463142Y-62336733D01*
X103501238Y-62260542D01*
X103539333Y-62222447D01*
X103615523Y-62184352D01*
X103767904Y-62146257D01*
X103844095Y-62108161D01*
X103882190Y-62070066D01*
X103920285Y-61993876D01*
X103920285Y-61917685D01*
X103882190Y-61841495D01*
X103844095Y-61803400D01*
X103767904Y-61765304D01*
X103577428Y-61765304D01*
X103463142Y-61803400D01*
X102891714Y-61765304D02*
X102891714Y-62336733D01*
X102929809Y-62451019D01*
X103006000Y-62527209D01*
X103120285Y-62565304D01*
X103196476Y-62565304D01*
X102167904Y-61765304D02*
X102320285Y-61765304D01*
X102396476Y-61803400D01*
X102434571Y-61841495D01*
X102510761Y-61955780D01*
X102548857Y-62108161D01*
X102548857Y-62412923D01*
X102510761Y-62489114D01*
X102472666Y-62527209D01*
X102396476Y-62565304D01*
X102244095Y-62565304D01*
X102167904Y-62527209D01*
X102129809Y-62489114D01*
X102091714Y-62412923D01*
X102091714Y-62222447D01*
X102129809Y-62146257D01*
X102167904Y-62108161D01*
X102244095Y-62070066D01*
X102396476Y-62070066D01*
X102472666Y-62108161D01*
X102510761Y-62146257D01*
X102548857Y-62222447D01*
M02*
