G04 #@! TF.GenerationSoftware,KiCad,Pcbnew,5.0.0-rc2-dev-unknown-6866c0c~65~ubuntu18.04.1*
G04 #@! TF.CreationDate,2018-05-11T09:14:04+03:00*
G04 #@! TF.ProjectId,MiniBot_RevA,4D696E69426F745F526576412E6B6963,rev?*
G04 #@! TF.SameCoordinates,Original*
G04 #@! TF.FileFunction,Copper,L1,Top,Signal*
G04 #@! TF.FilePolarity,Positive*
%FSLAX46Y46*%
G04 Gerber Fmt 4.6, Leading zero omitted, Abs format (unit mm)*
G04 Created by KiCad (PCBNEW 5.0.0-rc2-dev-unknown-6866c0c~65~ubuntu18.04.1) date Fri May 11 09:14:04 2018*
%MOMM*%
%LPD*%
G01*
G04 APERTURE LIST*
%ADD10O,1.524000X1.524000*%
%ADD11R,1.524000X1.524000*%
%ADD12C,1.524000*%
%ADD13R,2.200000X0.700000*%
%ADD14O,1.110000X4.060000*%
%ADD15C,1.778000*%
%ADD16R,1.778000X1.778000*%
%ADD17C,1.800000*%
%ADD18C,0.100000*%
%ADD19O,4.000000X3.000000*%
%ADD20C,1.800000*%
%ADD21R,1.400000X1.400000*%
%ADD22C,1.400000*%
%ADD23R,1.778000X1.524000*%
%ADD24C,1.500000*%
%ADD25C,1.500000*%
%ADD26R,1.000000X1.400000*%
%ADD27R,1.524000X1.778000*%
%ADD28C,0.800000*%
%ADD29C,1.016000*%
%ADD30C,1.524000*%
%ADD31C,0.762000*%
%ADD32C,0.508000*%
%ADD33C,0.254000*%
G04 APERTURE END LIST*
D10*
X98730000Y-71500000D03*
D11*
X101270000Y-71500000D03*
X102730000Y-69000000D03*
D12*
X105270000Y-69000000D03*
D11*
X97270000Y-69000000D03*
D12*
X94730000Y-69000000D03*
D13*
X103735000Y-58905000D03*
X103735000Y-57635000D03*
X103735000Y-56365000D03*
X103735000Y-55095000D03*
X96765000Y-55095000D03*
X96765000Y-56365000D03*
X96765000Y-57635000D03*
X96765000Y-58905000D03*
D14*
X89713000Y-39200000D03*
X110287000Y-39200000D03*
D15*
X106700000Y-52500000D03*
X101620000Y-52500000D03*
X104160000Y-52500000D03*
X99080000Y-52500000D03*
X96540000Y-52500000D03*
D16*
X86380000Y-52500000D03*
D15*
X88920000Y-52500000D03*
X91460000Y-52500000D03*
X94000000Y-52500000D03*
D17*
X89000000Y-66500000D03*
D18*
G36*
X89220577Y-64317949D02*
X90779423Y-65217949D01*
X88779423Y-68682051D01*
X87220577Y-67782051D01*
X89220577Y-64317949D01*
X89220577Y-64317949D01*
G37*
D19*
X85750000Y-35000000D03*
X114250000Y-35000000D03*
X114250000Y-48000000D03*
D17*
X109000000Y-68500000D03*
D20*
X108450000Y-67547372D02*
X109550000Y-69452628D01*
D17*
X91000000Y-68500000D03*
D20*
X91550000Y-67547372D02*
X90450000Y-69452628D01*
D17*
X111000000Y-66500000D03*
D18*
G36*
X109220577Y-65217949D02*
X110779423Y-64317949D01*
X112779423Y-67782051D01*
X111220577Y-68682051D01*
X109220577Y-65217949D01*
X109220577Y-65217949D01*
G37*
D21*
X113528700Y-52535680D03*
D22*
X111499240Y-52538220D03*
D23*
X100000000Y-43397000D03*
X100000000Y-40603000D03*
D24*
X106806590Y-31065634D03*
D25*
X106977600Y-30595788D02*
X106635580Y-31535480D01*
D24*
X109193410Y-31934366D03*
D18*
G36*
X108916166Y-30503235D02*
X110325705Y-31016265D01*
X109470654Y-33365497D01*
X108061115Y-32852467D01*
X108916166Y-30503235D01*
X108916166Y-30503235D01*
G37*
D24*
X90806590Y-31934366D03*
D18*
G36*
X91938885Y-32852467D02*
X90529346Y-33365497D01*
X89674295Y-31016265D01*
X91083834Y-30503235D01*
X91938885Y-32852467D01*
X91938885Y-32852467D01*
G37*
D24*
X93193410Y-31065634D03*
D25*
X93364420Y-31535480D02*
X93022400Y-30595788D01*
D26*
X97997460Y-31897640D03*
X98952500Y-34107440D03*
X97050040Y-34107440D03*
X101050040Y-34107440D03*
X102952500Y-34107440D03*
X101997460Y-31897640D03*
D23*
X102500000Y-63603000D03*
X102500000Y-66397000D03*
X100000000Y-63603000D03*
X100000000Y-66397000D03*
D27*
X93897000Y-63000000D03*
X91103000Y-63000000D03*
X108897000Y-63000000D03*
X106103000Y-63000000D03*
D23*
X97500000Y-66397000D03*
X97500000Y-63603000D03*
D19*
X85750000Y-48000000D03*
D28*
X94370000Y-60806400D03*
X100059600Y-48843000D03*
X96757600Y-61517600D03*
X103006000Y-35571500D03*
X100000000Y-39200000D03*
X99005500Y-35635000D03*
X88451800Y-61924000D03*
X103793400Y-59917400D03*
X98751351Y-64845278D03*
X95020800Y-56791930D03*
X105825400Y-57656800D03*
X101627000Y-56365000D03*
X95335200Y-54075400D03*
X102015402Y-58926800D03*
X98789600Y-58952201D03*
X92414200Y-60577800D03*
X92084000Y-65226000D03*
X98789600Y-62219210D03*
X107730400Y-61263600D03*
D29*
X100000000Y-43397000D02*
X100000000Y-48783400D01*
X100000000Y-48783400D02*
X100059600Y-48843000D01*
D30*
X107565000Y-43397000D02*
X107459000Y-43397000D01*
X110287000Y-40675000D02*
X107565000Y-43397000D01*
X110287000Y-39200000D02*
X110287000Y-40675000D01*
X107459000Y-43397000D02*
X102320200Y-43397000D01*
D31*
X102320200Y-43397000D02*
X100000000Y-43397000D01*
D30*
X110287000Y-33027956D02*
X110287000Y-33425200D01*
X109193410Y-31934366D02*
X110287000Y-33027956D01*
X110287000Y-33425200D02*
X110287000Y-39200000D01*
D31*
X113528700Y-52535680D02*
X113528700Y-51491700D01*
X113528700Y-51491700D02*
X111348820Y-49311820D01*
D30*
X111309640Y-49351000D02*
X111348820Y-49311820D01*
X109838600Y-49351000D02*
X111309640Y-49351000D01*
X107459000Y-43397000D02*
X107459000Y-46971400D01*
X107459000Y-46971400D02*
X109838600Y-49351000D01*
X89696400Y-33044556D02*
X90806590Y-31934366D01*
X89713000Y-39200000D02*
X89696400Y-39183400D01*
X89696400Y-39183400D02*
X89696400Y-33044556D01*
X89713000Y-39200000D02*
X89713000Y-40675000D01*
D29*
X94000000Y-49285800D02*
X94000000Y-52500000D01*
X89713000Y-40675000D02*
X89713000Y-44998800D01*
X89713000Y-44998800D02*
X94000000Y-49285800D01*
D32*
X96765000Y-58905000D02*
X96765000Y-61510200D01*
X96765000Y-61510200D02*
X96757600Y-61517600D01*
D31*
X100000000Y-40603000D02*
X100000000Y-39200000D01*
X99005500Y-34160440D02*
X98952500Y-34107440D01*
X99005500Y-35635000D02*
X99005500Y-34160440D01*
X103006000Y-34160940D02*
X102952500Y-34107440D01*
X103006000Y-35571500D02*
X103006000Y-34160940D01*
D32*
X106700000Y-53734200D02*
X106700000Y-52500000D01*
X103235000Y-55095000D02*
X105339200Y-55095000D01*
X105339200Y-55095000D02*
X106700000Y-53734200D01*
D33*
X98738800Y-65180999D02*
X98738800Y-67842200D01*
D32*
X98738800Y-67842200D02*
X98730000Y-67851000D01*
D29*
X98730000Y-71500000D02*
X98730000Y-70382200D01*
D32*
X98730000Y-67851000D02*
X98730000Y-70382200D01*
X102500000Y-64873000D02*
X102500000Y-63603000D01*
X98738800Y-65180999D02*
X98947799Y-64972000D01*
X102401000Y-64972000D02*
X102500000Y-64873000D01*
X98947799Y-64972000D02*
X102401000Y-64972000D01*
X103393401Y-60317399D02*
X103793400Y-59917400D01*
X102500000Y-61210800D02*
X103393401Y-60317399D01*
X102500000Y-63603000D02*
X102500000Y-61210800D01*
X98738800Y-64714800D02*
X98738800Y-64714800D01*
X97500000Y-63603000D02*
X97509073Y-63603000D01*
X97509073Y-63603000D02*
X98351352Y-64445279D01*
X98351352Y-64445279D02*
X98751351Y-64845278D01*
X98738800Y-64857829D02*
X98751351Y-64845278D01*
X98738800Y-65180999D02*
X98738800Y-64857829D01*
D31*
X100000000Y-66397000D02*
X100000000Y-69154200D01*
X100000000Y-69154200D02*
X101270000Y-70424200D01*
D29*
X101270000Y-71500000D02*
X101270000Y-70424200D01*
D32*
X96765000Y-57635000D02*
X95157000Y-57635000D01*
X96103000Y-66397000D02*
X97500000Y-66397000D01*
X94928800Y-59917400D02*
X95563800Y-60552400D01*
X95157000Y-57635000D02*
X94928800Y-57863200D01*
X94928800Y-57863200D02*
X94928800Y-59917400D01*
X95563800Y-60552400D02*
X95563800Y-65857800D01*
X95563800Y-65857800D02*
X96103000Y-66397000D01*
X90346200Y-57863200D02*
X94928800Y-57863200D01*
X86380000Y-53897000D02*
X90346200Y-57863200D01*
X86380000Y-52500000D02*
X86380000Y-53897000D01*
D29*
X97270000Y-68097600D02*
X97500000Y-67867600D01*
X97270000Y-69000000D02*
X97270000Y-68097600D01*
D31*
X97500000Y-66397000D02*
X97500000Y-67867600D01*
D29*
X102730000Y-67996000D02*
X102500000Y-67766000D01*
X102730000Y-69000000D02*
X102730000Y-67996000D01*
D31*
X102500000Y-66397000D02*
X102500000Y-67766000D01*
D32*
X90914330Y-56791930D02*
X95020800Y-56791930D01*
X88920000Y-52500000D02*
X88920000Y-54797600D01*
X88920000Y-54797600D02*
X90914330Y-56791930D01*
X103235000Y-57635000D02*
X105803600Y-57635000D01*
X103897000Y-61464800D02*
X105825400Y-59536400D01*
X105803600Y-57635000D02*
X105825400Y-57656800D01*
X102500000Y-66397000D02*
X102627000Y-66397000D01*
X102627000Y-66397000D02*
X103897000Y-65127000D01*
X103897000Y-65127000D02*
X103897000Y-61464800D01*
X105825400Y-58222485D02*
X105825400Y-57656800D01*
X105825400Y-59536400D02*
X105825400Y-58222485D01*
D31*
X104052360Y-31897640D02*
X101997460Y-31897640D01*
D30*
X106806590Y-31065634D02*
X104884366Y-31065634D01*
X104884366Y-31065634D02*
X104052360Y-31897640D01*
D31*
X96197640Y-31897640D02*
X97997460Y-31897640D01*
D30*
X93193410Y-31065634D02*
X95365634Y-31065634D01*
X95365634Y-31065634D02*
X96197640Y-31897640D01*
D32*
X99080000Y-53757235D02*
X98865800Y-53971435D01*
X99080000Y-52500000D02*
X99080000Y-53757235D01*
X98865800Y-53971435D02*
X98865800Y-55955000D01*
X98455800Y-56365000D02*
X96765000Y-56365000D01*
X98865800Y-55955000D02*
X98455800Y-56365000D01*
X97800000Y-38809000D02*
X97800000Y-49453600D01*
X99080000Y-50733600D02*
X99080000Y-52500000D01*
X97800000Y-49453600D02*
X99080000Y-50733600D01*
X101050040Y-34107440D02*
X101050040Y-35558960D01*
X101050040Y-35558960D02*
X97800000Y-38809000D01*
X96540000Y-54870000D02*
X96765000Y-55095000D01*
X96540000Y-52500000D02*
X96540000Y-54870000D01*
X96540000Y-50076600D02*
X96540000Y-52500000D01*
X97050040Y-34107440D02*
X97050040Y-49566560D01*
X97050040Y-49566560D02*
X96540000Y-50076600D01*
X100000000Y-62333000D02*
X100000000Y-63603000D01*
X101627000Y-56365000D02*
X100000000Y-57992000D01*
X100000000Y-57992000D02*
X100000000Y-62333000D01*
X103235000Y-56365000D02*
X101627000Y-56365000D01*
X91460000Y-53324400D02*
X91460000Y-52500000D01*
X95335200Y-54075400D02*
X92211000Y-54075400D01*
X92211000Y-54075400D02*
X91460000Y-53324400D01*
D31*
X89000000Y-66500000D02*
X89000000Y-66176400D01*
D29*
X89000000Y-66500000D02*
X91103000Y-64397000D01*
X91103000Y-64397000D02*
X91103000Y-63000000D01*
D32*
X101615403Y-59326799D02*
X102015402Y-58926800D01*
X103213200Y-58926800D02*
X102581087Y-58926800D01*
X101304200Y-59638002D02*
X101615403Y-59326799D01*
X103235000Y-58905000D02*
X103213200Y-58926800D01*
X101304200Y-62117610D02*
X101304200Y-59638002D01*
X102581087Y-58926800D02*
X102015402Y-58926800D01*
D31*
X108897000Y-63852600D02*
X108897000Y-63000000D01*
X111000000Y-66500000D02*
X111000000Y-65955600D01*
X111000000Y-65955600D02*
X108897000Y-63852600D01*
D32*
X92515800Y-64794200D02*
X92084000Y-65226000D01*
X92414200Y-60577800D02*
X92515800Y-60679400D01*
X92515800Y-60679400D02*
X92515800Y-64794200D01*
X98789600Y-58952201D02*
X98789600Y-62219210D01*
X94730000Y-67262400D02*
X94730000Y-69000000D01*
X93897000Y-63000000D02*
X93897000Y-66429400D01*
X93897000Y-66429400D02*
X94730000Y-67262400D01*
X93249813Y-67076587D02*
X93897000Y-66429400D01*
X92423413Y-67076587D02*
X93249813Y-67076587D01*
X91000000Y-68500000D02*
X92423413Y-67076587D01*
X105270000Y-67686400D02*
X105270000Y-69000000D01*
X106104800Y-65252800D02*
X106104800Y-66851600D01*
X106103000Y-63000000D02*
X106103000Y-65251000D01*
X106104800Y-66851600D02*
X105270000Y-67686400D01*
X106103000Y-65251000D02*
X106104800Y-65252800D01*
X107351600Y-66851600D02*
X109000000Y-68500000D01*
X106104800Y-66851600D02*
X107351600Y-66851600D01*
X106103000Y-63000000D02*
X106103000Y-61875000D01*
X106714400Y-61263600D02*
X107730400Y-61263600D01*
X106103000Y-61875000D02*
X106714400Y-61263600D01*
D33*
G36*
X98863235Y-67757157D02*
X98984001Y-67781178D01*
X98984001Y-69054132D01*
X98964096Y-69154200D01*
X99042950Y-69550623D01*
X99184188Y-69762000D01*
X99267506Y-69886695D01*
X99352337Y-69943377D01*
X99908076Y-70499117D01*
X99865484Y-70713244D01*
X99565199Y-70380142D01*
X99073072Y-70145769D01*
X98857000Y-70267524D01*
X98857000Y-71373000D01*
X98877000Y-71373000D01*
X98877000Y-71627000D01*
X98857000Y-71627000D01*
X98857000Y-72732476D01*
X99073072Y-72854231D01*
X99565199Y-72619858D01*
X99865484Y-72286756D01*
X99909843Y-72509765D01*
X100050191Y-72719809D01*
X100260235Y-72860157D01*
X100508000Y-72909440D01*
X102032000Y-72909440D01*
X102279765Y-72860157D01*
X102489809Y-72719809D01*
X102630157Y-72509765D01*
X102679440Y-72262000D01*
X102679440Y-70738000D01*
X102630157Y-70490235D01*
X102576171Y-70409440D01*
X103492000Y-70409440D01*
X103739765Y-70360157D01*
X103949809Y-70219809D01*
X104090157Y-70009765D01*
X104125653Y-69831310D01*
X104478663Y-70184320D01*
X104992119Y-70397000D01*
X105547881Y-70397000D01*
X106061337Y-70184320D01*
X106454320Y-69791337D01*
X106667000Y-69277881D01*
X106667000Y-68722119D01*
X106454320Y-68208663D01*
X106229646Y-67983989D01*
X106473036Y-67740600D01*
X106899043Y-67740600D01*
X106898318Y-67751654D01*
X107045060Y-68183944D01*
X108296242Y-70351055D01*
X108597244Y-70694282D01*
X108644629Y-70717650D01*
X107790770Y-71239544D01*
X106390102Y-71920701D01*
X104930591Y-72464475D01*
X103425692Y-72865854D01*
X101889243Y-73121150D01*
X100335400Y-73228008D01*
X98778480Y-73185444D01*
X97232792Y-72993851D01*
X95712591Y-72654994D01*
X94231858Y-72171989D01*
X93477771Y-71843070D01*
X97375780Y-71843070D01*
X97529826Y-72214997D01*
X97894801Y-72619858D01*
X98386928Y-72854231D01*
X98603000Y-72732476D01*
X98603000Y-71627000D01*
X97498280Y-71627000D01*
X97375780Y-71843070D01*
X93477771Y-71843070D01*
X92804252Y-71549294D01*
X91442886Y-70792625D01*
X91342952Y-70723773D01*
X91402755Y-70694282D01*
X91703758Y-70351055D01*
X92954939Y-68183945D01*
X93029062Y-67965587D01*
X93162258Y-67965587D01*
X93249813Y-67983003D01*
X93337368Y-67965587D01*
X93337369Y-67965587D01*
X93596683Y-67914006D01*
X93841000Y-67750759D01*
X93841000Y-67913343D01*
X93545680Y-68208663D01*
X93333000Y-68722119D01*
X93333000Y-69277881D01*
X93545680Y-69791337D01*
X93938663Y-70184320D01*
X94452119Y-70397000D01*
X95007881Y-70397000D01*
X95521337Y-70184320D01*
X95874347Y-69831310D01*
X95909843Y-70009765D01*
X96050191Y-70219809D01*
X96260235Y-70360157D01*
X96508000Y-70409440D01*
X97868389Y-70409440D01*
X97529826Y-70785003D01*
X97375780Y-71156930D01*
X97498280Y-71373000D01*
X98603000Y-71373000D01*
X98603000Y-70267524D01*
X98497608Y-70208137D01*
X98630157Y-70009765D01*
X98679440Y-69762000D01*
X98679440Y-68238000D01*
X98635578Y-68017486D01*
X98665392Y-67867601D01*
X98642642Y-67753230D01*
X98750000Y-67681495D01*
X98863235Y-67757157D01*
X98863235Y-67757157D01*
G37*
X98863235Y-67757157D02*
X98984001Y-67781178D01*
X98984001Y-69054132D01*
X98964096Y-69154200D01*
X99042950Y-69550623D01*
X99184188Y-69762000D01*
X99267506Y-69886695D01*
X99352337Y-69943377D01*
X99908076Y-70499117D01*
X99865484Y-70713244D01*
X99565199Y-70380142D01*
X99073072Y-70145769D01*
X98857000Y-70267524D01*
X98857000Y-71373000D01*
X98877000Y-71373000D01*
X98877000Y-71627000D01*
X98857000Y-71627000D01*
X98857000Y-72732476D01*
X99073072Y-72854231D01*
X99565199Y-72619858D01*
X99865484Y-72286756D01*
X99909843Y-72509765D01*
X100050191Y-72719809D01*
X100260235Y-72860157D01*
X100508000Y-72909440D01*
X102032000Y-72909440D01*
X102279765Y-72860157D01*
X102489809Y-72719809D01*
X102630157Y-72509765D01*
X102679440Y-72262000D01*
X102679440Y-70738000D01*
X102630157Y-70490235D01*
X102576171Y-70409440D01*
X103492000Y-70409440D01*
X103739765Y-70360157D01*
X103949809Y-70219809D01*
X104090157Y-70009765D01*
X104125653Y-69831310D01*
X104478663Y-70184320D01*
X104992119Y-70397000D01*
X105547881Y-70397000D01*
X106061337Y-70184320D01*
X106454320Y-69791337D01*
X106667000Y-69277881D01*
X106667000Y-68722119D01*
X106454320Y-68208663D01*
X106229646Y-67983989D01*
X106473036Y-67740600D01*
X106899043Y-67740600D01*
X106898318Y-67751654D01*
X107045060Y-68183944D01*
X108296242Y-70351055D01*
X108597244Y-70694282D01*
X108644629Y-70717650D01*
X107790770Y-71239544D01*
X106390102Y-71920701D01*
X104930591Y-72464475D01*
X103425692Y-72865854D01*
X101889243Y-73121150D01*
X100335400Y-73228008D01*
X98778480Y-73185444D01*
X97232792Y-72993851D01*
X95712591Y-72654994D01*
X94231858Y-72171989D01*
X93477771Y-71843070D01*
X97375780Y-71843070D01*
X97529826Y-72214997D01*
X97894801Y-72619858D01*
X98386928Y-72854231D01*
X98603000Y-72732476D01*
X98603000Y-71627000D01*
X97498280Y-71627000D01*
X97375780Y-71843070D01*
X93477771Y-71843070D01*
X92804252Y-71549294D01*
X91442886Y-70792625D01*
X91342952Y-70723773D01*
X91402755Y-70694282D01*
X91703758Y-70351055D01*
X92954939Y-68183945D01*
X93029062Y-67965587D01*
X93162258Y-67965587D01*
X93249813Y-67983003D01*
X93337368Y-67965587D01*
X93337369Y-67965587D01*
X93596683Y-67914006D01*
X93841000Y-67750759D01*
X93841000Y-67913343D01*
X93545680Y-68208663D01*
X93333000Y-68722119D01*
X93333000Y-69277881D01*
X93545680Y-69791337D01*
X93938663Y-70184320D01*
X94452119Y-70397000D01*
X95007881Y-70397000D01*
X95521337Y-70184320D01*
X95874347Y-69831310D01*
X95909843Y-70009765D01*
X96050191Y-70219809D01*
X96260235Y-70360157D01*
X96508000Y-70409440D01*
X97868389Y-70409440D01*
X97529826Y-70785003D01*
X97375780Y-71156930D01*
X97498280Y-71373000D01*
X98603000Y-71373000D01*
X98603000Y-70267524D01*
X98497608Y-70208137D01*
X98630157Y-70009765D01*
X98679440Y-69762000D01*
X98679440Y-68238000D01*
X98635578Y-68017486D01*
X98665392Y-67867601D01*
X98642642Y-67753230D01*
X98750000Y-67681495D01*
X98863235Y-67757157D01*
G36*
X84843560Y-51611000D02*
X84843560Y-53389000D01*
X84892843Y-53636765D01*
X85033191Y-53846809D01*
X85243235Y-53987157D01*
X85491000Y-54036440D01*
X85501321Y-54036440D01*
X85542582Y-54243870D01*
X85661785Y-54422270D01*
X85739068Y-54537933D01*
X85813294Y-54587529D01*
X89655671Y-58429907D01*
X89705267Y-58504133D01*
X89999330Y-58700619D01*
X90258644Y-58752200D01*
X90258645Y-58752200D01*
X90346200Y-58769616D01*
X90433755Y-58752200D01*
X94039800Y-58752200D01*
X94039801Y-59822897D01*
X93783720Y-59928969D01*
X93492569Y-60220120D01*
X93439445Y-60348374D01*
X93291631Y-59991520D01*
X93000480Y-59700369D01*
X92620074Y-59542800D01*
X92208326Y-59542800D01*
X91827920Y-59700369D01*
X91536769Y-59991520D01*
X91379200Y-60371926D01*
X91379200Y-60783674D01*
X91536769Y-61164080D01*
X91626800Y-61254111D01*
X91626800Y-61463560D01*
X90341000Y-61463560D01*
X90093235Y-61512843D01*
X89883191Y-61653191D01*
X89742843Y-61863235D01*
X89693560Y-62111000D01*
X89693560Y-63843426D01*
X89544297Y-63757249D01*
X89305085Y-63676048D01*
X89053007Y-63692570D01*
X88826440Y-63804300D01*
X88659877Y-63994229D01*
X87054436Y-66774934D01*
X86899176Y-66582752D01*
X86041023Y-65282975D01*
X85311399Y-63906930D01*
X84717020Y-62467288D01*
X84263365Y-60977314D01*
X83954605Y-59450717D01*
X83793584Y-57901545D01*
X83781785Y-56344082D01*
X83920206Y-54782633D01*
X84015943Y-54178174D01*
X84123973Y-53863540D01*
X84129937Y-53834868D01*
X84140717Y-53807640D01*
X84158013Y-53716973D01*
X84233368Y-53120479D01*
X84242456Y-53074435D01*
X84240190Y-51532447D01*
X84859265Y-51532044D01*
X84843560Y-51611000D01*
X84843560Y-51611000D01*
G37*
X84843560Y-51611000D02*
X84843560Y-53389000D01*
X84892843Y-53636765D01*
X85033191Y-53846809D01*
X85243235Y-53987157D01*
X85491000Y-54036440D01*
X85501321Y-54036440D01*
X85542582Y-54243870D01*
X85661785Y-54422270D01*
X85739068Y-54537933D01*
X85813294Y-54587529D01*
X89655671Y-58429907D01*
X89705267Y-58504133D01*
X89999330Y-58700619D01*
X90258644Y-58752200D01*
X90258645Y-58752200D01*
X90346200Y-58769616D01*
X90433755Y-58752200D01*
X94039800Y-58752200D01*
X94039801Y-59822897D01*
X93783720Y-59928969D01*
X93492569Y-60220120D01*
X93439445Y-60348374D01*
X93291631Y-59991520D01*
X93000480Y-59700369D01*
X92620074Y-59542800D01*
X92208326Y-59542800D01*
X91827920Y-59700369D01*
X91536769Y-59991520D01*
X91379200Y-60371926D01*
X91379200Y-60783674D01*
X91536769Y-61164080D01*
X91626800Y-61254111D01*
X91626800Y-61463560D01*
X90341000Y-61463560D01*
X90093235Y-61512843D01*
X89883191Y-61653191D01*
X89742843Y-61863235D01*
X89693560Y-62111000D01*
X89693560Y-63843426D01*
X89544297Y-63757249D01*
X89305085Y-63676048D01*
X89053007Y-63692570D01*
X88826440Y-63804300D01*
X88659877Y-63994229D01*
X87054436Y-66774934D01*
X86899176Y-66582752D01*
X86041023Y-65282975D01*
X85311399Y-63906930D01*
X84717020Y-62467288D01*
X84263365Y-60977314D01*
X83954605Y-59450717D01*
X83793584Y-57901545D01*
X83781785Y-56344082D01*
X83920206Y-54782633D01*
X84015943Y-54178174D01*
X84123973Y-53863540D01*
X84129937Y-53834868D01*
X84140717Y-53807640D01*
X84158013Y-53716973D01*
X84233368Y-53120479D01*
X84242456Y-53074435D01*
X84240190Y-51532447D01*
X84859265Y-51532044D01*
X84843560Y-51611000D01*
G36*
X115755068Y-52965521D02*
X115754744Y-52967407D01*
X115755033Y-52983037D01*
X115754857Y-53070917D01*
X115759134Y-53092647D01*
X115789428Y-53464422D01*
X115795589Y-53493762D01*
X115796696Y-53523719D01*
X115817328Y-53613686D01*
X115979896Y-54161918D01*
X116177264Y-55674530D01*
X116229827Y-57231146D01*
X116132953Y-58785648D01*
X115887534Y-60323700D01*
X115495828Y-61831153D01*
X114961442Y-63294122D01*
X114289297Y-64699138D01*
X113485581Y-66033261D01*
X112941137Y-66767266D01*
X111340123Y-63994229D01*
X111173560Y-63804300D01*
X110946993Y-63692570D01*
X110694915Y-63676048D01*
X110455703Y-63757249D01*
X110317995Y-63836755D01*
X110306440Y-63825200D01*
X110306440Y-62111000D01*
X110257157Y-61863235D01*
X110116809Y-61653191D01*
X109906765Y-61512843D01*
X109659000Y-61463560D01*
X108765400Y-61463560D01*
X108765400Y-61057726D01*
X108607831Y-60677320D01*
X108316680Y-60386169D01*
X107936274Y-60228600D01*
X107524526Y-60228600D01*
X107172050Y-60374600D01*
X106801954Y-60374600D01*
X106714399Y-60357184D01*
X106626844Y-60374600D01*
X106367530Y-60426181D01*
X106073467Y-60622667D01*
X106023870Y-60696894D01*
X105536294Y-61184471D01*
X105462068Y-61234067D01*
X105412472Y-61308293D01*
X105412471Y-61308294D01*
X105303779Y-61470964D01*
X105109410Y-61509626D01*
X106392107Y-60226929D01*
X106466333Y-60177333D01*
X106662819Y-59883270D01*
X106714400Y-59623956D01*
X106714400Y-59623952D01*
X106731815Y-59536401D01*
X106714400Y-59448850D01*
X106714400Y-58215150D01*
X106860400Y-57862674D01*
X106860400Y-57450926D01*
X106702831Y-57070520D01*
X106411680Y-56779369D01*
X106031274Y-56621800D01*
X105619526Y-56621800D01*
X105482440Y-56678583D01*
X105482440Y-56015000D01*
X105433157Y-55767235D01*
X105405802Y-55726296D01*
X105470000Y-55571309D01*
X105470000Y-55380750D01*
X105311250Y-55222000D01*
X103862000Y-55222000D01*
X103862000Y-55242000D01*
X103608000Y-55242000D01*
X103608000Y-55222000D01*
X102158750Y-55222000D01*
X102000000Y-55380750D01*
X102000000Y-55399226D01*
X101832874Y-55330000D01*
X101421126Y-55330000D01*
X101040720Y-55487569D01*
X100749569Y-55778720D01*
X100603569Y-56131195D01*
X99433296Y-57301469D01*
X99359067Y-57351067D01*
X99162581Y-57645131D01*
X99126419Y-57826930D01*
X99099862Y-57960440D01*
X98995474Y-57917201D01*
X98583726Y-57917201D01*
X98512440Y-57946729D01*
X98512440Y-57285000D01*
X98507685Y-57261095D01*
X98543355Y-57254000D01*
X98543356Y-57254000D01*
X98802670Y-57202419D01*
X99096733Y-57005933D01*
X99146331Y-56931704D01*
X99432504Y-56645531D01*
X99506733Y-56595933D01*
X99651517Y-56379248D01*
X99703219Y-56301871D01*
X99772216Y-55955000D01*
X99754800Y-55867444D01*
X99754800Y-54618691D01*
X102000000Y-54618691D01*
X102000000Y-54809250D01*
X102158750Y-54968000D01*
X103608000Y-54968000D01*
X103608000Y-54268750D01*
X103862000Y-54268750D01*
X103862000Y-54968000D01*
X105311250Y-54968000D01*
X105470000Y-54809250D01*
X105470000Y-54618691D01*
X105373327Y-54385302D01*
X105194699Y-54206673D01*
X104961310Y-54110000D01*
X104020750Y-54110000D01*
X103862000Y-54268750D01*
X103608000Y-54268750D01*
X103449250Y-54110000D01*
X102508690Y-54110000D01*
X102275301Y-54206673D01*
X102096673Y-54385302D01*
X102000000Y-54618691D01*
X99754800Y-54618691D01*
X99754800Y-54347482D01*
X99917419Y-54104105D01*
X99969000Y-53844791D01*
X99986416Y-53757235D01*
X99985024Y-53750238D01*
X100350000Y-53385262D01*
X100756723Y-53791985D01*
X101316858Y-54024000D01*
X101923142Y-54024000D01*
X102483277Y-53791985D01*
X102890000Y-53385262D01*
X103296723Y-53791985D01*
X103856858Y-54024000D01*
X104463142Y-54024000D01*
X105023277Y-53791985D01*
X105243066Y-53572196D01*
X105807409Y-53572196D01*
X105892467Y-53827539D01*
X106461965Y-54035516D01*
X107067700Y-54009723D01*
X107507533Y-53827539D01*
X107592591Y-53572196D01*
X106700000Y-52679605D01*
X105807409Y-53572196D01*
X105243066Y-53572196D01*
X105451985Y-53363277D01*
X105462633Y-53337570D01*
X105627804Y-53392591D01*
X106520395Y-52500000D01*
X106506253Y-52485858D01*
X106685858Y-52306253D01*
X106700000Y-52320395D01*
X106714143Y-52306253D01*
X106893748Y-52485858D01*
X106879605Y-52500000D01*
X107772196Y-53392591D01*
X108027539Y-53307533D01*
X108235516Y-52738035D01*
X108218795Y-52345342D01*
X110151821Y-52345342D01*
X110180576Y-52875660D01*
X110328198Y-53232051D01*
X110563965Y-53293889D01*
X111319635Y-52538220D01*
X110563965Y-51782551D01*
X110328198Y-51844389D01*
X110151821Y-52345342D01*
X108218795Y-52345342D01*
X108209723Y-52132300D01*
X108027539Y-51692467D01*
X107772198Y-51607410D01*
X107862569Y-51517039D01*
X110766600Y-51515144D01*
X110743571Y-51602945D01*
X111499240Y-52358615D01*
X111513382Y-52344472D01*
X111692988Y-52524078D01*
X111678845Y-52538220D01*
X111692988Y-52552362D01*
X111513382Y-52731968D01*
X111499240Y-52717825D01*
X110743571Y-53473495D01*
X110805409Y-53709262D01*
X111306362Y-53885639D01*
X111836680Y-53856884D01*
X112193071Y-53709262D01*
X112246167Y-53506827D01*
X112370891Y-53693489D01*
X112580935Y-53833837D01*
X112828700Y-53883120D01*
X114228700Y-53883120D01*
X114476465Y-53833837D01*
X114686509Y-53693489D01*
X114826857Y-53483445D01*
X114876140Y-53235680D01*
X114876140Y-51835680D01*
X114826857Y-51587915D01*
X114776485Y-51512528D01*
X115757975Y-51511888D01*
X115755068Y-52965521D01*
X115755068Y-52965521D01*
G37*
X115755068Y-52965521D02*
X115754744Y-52967407D01*
X115755033Y-52983037D01*
X115754857Y-53070917D01*
X115759134Y-53092647D01*
X115789428Y-53464422D01*
X115795589Y-53493762D01*
X115796696Y-53523719D01*
X115817328Y-53613686D01*
X115979896Y-54161918D01*
X116177264Y-55674530D01*
X116229827Y-57231146D01*
X116132953Y-58785648D01*
X115887534Y-60323700D01*
X115495828Y-61831153D01*
X114961442Y-63294122D01*
X114289297Y-64699138D01*
X113485581Y-66033261D01*
X112941137Y-66767266D01*
X111340123Y-63994229D01*
X111173560Y-63804300D01*
X110946993Y-63692570D01*
X110694915Y-63676048D01*
X110455703Y-63757249D01*
X110317995Y-63836755D01*
X110306440Y-63825200D01*
X110306440Y-62111000D01*
X110257157Y-61863235D01*
X110116809Y-61653191D01*
X109906765Y-61512843D01*
X109659000Y-61463560D01*
X108765400Y-61463560D01*
X108765400Y-61057726D01*
X108607831Y-60677320D01*
X108316680Y-60386169D01*
X107936274Y-60228600D01*
X107524526Y-60228600D01*
X107172050Y-60374600D01*
X106801954Y-60374600D01*
X106714399Y-60357184D01*
X106626844Y-60374600D01*
X106367530Y-60426181D01*
X106073467Y-60622667D01*
X106023870Y-60696894D01*
X105536294Y-61184471D01*
X105462068Y-61234067D01*
X105412472Y-61308293D01*
X105412471Y-61308294D01*
X105303779Y-61470964D01*
X105109410Y-61509626D01*
X106392107Y-60226929D01*
X106466333Y-60177333D01*
X106662819Y-59883270D01*
X106714400Y-59623956D01*
X106714400Y-59623952D01*
X106731815Y-59536401D01*
X106714400Y-59448850D01*
X106714400Y-58215150D01*
X106860400Y-57862674D01*
X106860400Y-57450926D01*
X106702831Y-57070520D01*
X106411680Y-56779369D01*
X106031274Y-56621800D01*
X105619526Y-56621800D01*
X105482440Y-56678583D01*
X105482440Y-56015000D01*
X105433157Y-55767235D01*
X105405802Y-55726296D01*
X105470000Y-55571309D01*
X105470000Y-55380750D01*
X105311250Y-55222000D01*
X103862000Y-55222000D01*
X103862000Y-55242000D01*
X103608000Y-55242000D01*
X103608000Y-55222000D01*
X102158750Y-55222000D01*
X102000000Y-55380750D01*
X102000000Y-55399226D01*
X101832874Y-55330000D01*
X101421126Y-55330000D01*
X101040720Y-55487569D01*
X100749569Y-55778720D01*
X100603569Y-56131195D01*
X99433296Y-57301469D01*
X99359067Y-57351067D01*
X99162581Y-57645131D01*
X99126419Y-57826930D01*
X99099862Y-57960440D01*
X98995474Y-57917201D01*
X98583726Y-57917201D01*
X98512440Y-57946729D01*
X98512440Y-57285000D01*
X98507685Y-57261095D01*
X98543355Y-57254000D01*
X98543356Y-57254000D01*
X98802670Y-57202419D01*
X99096733Y-57005933D01*
X99146331Y-56931704D01*
X99432504Y-56645531D01*
X99506733Y-56595933D01*
X99651517Y-56379248D01*
X99703219Y-56301871D01*
X99772216Y-55955000D01*
X99754800Y-55867444D01*
X99754800Y-54618691D01*
X102000000Y-54618691D01*
X102000000Y-54809250D01*
X102158750Y-54968000D01*
X103608000Y-54968000D01*
X103608000Y-54268750D01*
X103862000Y-54268750D01*
X103862000Y-54968000D01*
X105311250Y-54968000D01*
X105470000Y-54809250D01*
X105470000Y-54618691D01*
X105373327Y-54385302D01*
X105194699Y-54206673D01*
X104961310Y-54110000D01*
X104020750Y-54110000D01*
X103862000Y-54268750D01*
X103608000Y-54268750D01*
X103449250Y-54110000D01*
X102508690Y-54110000D01*
X102275301Y-54206673D01*
X102096673Y-54385302D01*
X102000000Y-54618691D01*
X99754800Y-54618691D01*
X99754800Y-54347482D01*
X99917419Y-54104105D01*
X99969000Y-53844791D01*
X99986416Y-53757235D01*
X99985024Y-53750238D01*
X100350000Y-53385262D01*
X100756723Y-53791985D01*
X101316858Y-54024000D01*
X101923142Y-54024000D01*
X102483277Y-53791985D01*
X102890000Y-53385262D01*
X103296723Y-53791985D01*
X103856858Y-54024000D01*
X104463142Y-54024000D01*
X105023277Y-53791985D01*
X105243066Y-53572196D01*
X105807409Y-53572196D01*
X105892467Y-53827539D01*
X106461965Y-54035516D01*
X107067700Y-54009723D01*
X107507533Y-53827539D01*
X107592591Y-53572196D01*
X106700000Y-52679605D01*
X105807409Y-53572196D01*
X105243066Y-53572196D01*
X105451985Y-53363277D01*
X105462633Y-53337570D01*
X105627804Y-53392591D01*
X106520395Y-52500000D01*
X106506253Y-52485858D01*
X106685858Y-52306253D01*
X106700000Y-52320395D01*
X106714143Y-52306253D01*
X106893748Y-52485858D01*
X106879605Y-52500000D01*
X107772196Y-53392591D01*
X108027539Y-53307533D01*
X108235516Y-52738035D01*
X108218795Y-52345342D01*
X110151821Y-52345342D01*
X110180576Y-52875660D01*
X110328198Y-53232051D01*
X110563965Y-53293889D01*
X111319635Y-52538220D01*
X110563965Y-51782551D01*
X110328198Y-51844389D01*
X110151821Y-52345342D01*
X108218795Y-52345342D01*
X108209723Y-52132300D01*
X108027539Y-51692467D01*
X107772198Y-51607410D01*
X107862569Y-51517039D01*
X110766600Y-51515144D01*
X110743571Y-51602945D01*
X111499240Y-52358615D01*
X111513382Y-52344472D01*
X111692988Y-52524078D01*
X111678845Y-52538220D01*
X111692988Y-52552362D01*
X111513382Y-52731968D01*
X111499240Y-52717825D01*
X110743571Y-53473495D01*
X110805409Y-53709262D01*
X111306362Y-53885639D01*
X111836680Y-53856884D01*
X112193071Y-53709262D01*
X112246167Y-53506827D01*
X112370891Y-53693489D01*
X112580935Y-53833837D01*
X112828700Y-53883120D01*
X114228700Y-53883120D01*
X114476465Y-53833837D01*
X114686509Y-53693489D01*
X114826857Y-53483445D01*
X114876140Y-53235680D01*
X114876140Y-51835680D01*
X114826857Y-51587915D01*
X114776485Y-51512528D01*
X115757975Y-51511888D01*
X115755068Y-52965521D01*
G36*
X98863235Y-64963157D02*
X99048459Y-65000000D01*
X98863235Y-65036843D01*
X98750000Y-65112505D01*
X98636765Y-65036843D01*
X98451541Y-65000000D01*
X98515310Y-65000000D01*
X98748699Y-64903327D01*
X98758711Y-64893315D01*
X98863235Y-64963157D01*
X98863235Y-64963157D01*
G37*
X98863235Y-64963157D02*
X99048459Y-65000000D01*
X98863235Y-65036843D01*
X98750000Y-65112505D01*
X98636765Y-65036843D01*
X98451541Y-65000000D01*
X98515310Y-65000000D01*
X98748699Y-64903327D01*
X98758711Y-64893315D01*
X98863235Y-64963157D01*
G36*
X97627000Y-63476000D02*
X97647000Y-63476000D01*
X97647000Y-63730000D01*
X97627000Y-63730000D01*
X97627000Y-63750000D01*
X97373000Y-63750000D01*
X97373000Y-63730000D01*
X97353000Y-63730000D01*
X97353000Y-63476000D01*
X97373000Y-63476000D01*
X97373000Y-63456000D01*
X97627000Y-63456000D01*
X97627000Y-63476000D01*
X97627000Y-63476000D01*
G37*
X97627000Y-63476000D02*
X97647000Y-63476000D01*
X97647000Y-63730000D01*
X97627000Y-63730000D01*
X97627000Y-63750000D01*
X97373000Y-63750000D01*
X97373000Y-63730000D01*
X97353000Y-63730000D01*
X97353000Y-63476000D01*
X97373000Y-63476000D01*
X97373000Y-63456000D01*
X97627000Y-63456000D01*
X97627000Y-63476000D01*
G36*
X102635000Y-59902440D02*
X104202125Y-59902440D01*
X103330294Y-60774271D01*
X103256068Y-60823867D01*
X103206472Y-60898093D01*
X103206471Y-60898094D01*
X103059582Y-61117930D01*
X102990584Y-61464800D01*
X103008001Y-61552359D01*
X103008001Y-62206000D01*
X102785750Y-62206000D01*
X102627000Y-62364750D01*
X102627000Y-63476000D01*
X102647000Y-63476000D01*
X102647000Y-63730000D01*
X102627000Y-63730000D01*
X102627000Y-63750000D01*
X102373000Y-63750000D01*
X102373000Y-63730000D01*
X102353000Y-63730000D01*
X102353000Y-63476000D01*
X102373000Y-63476000D01*
X102373000Y-62364750D01*
X102214250Y-62206000D01*
X102193034Y-62206000D01*
X102193200Y-62205166D01*
X102193200Y-60006237D01*
X102249206Y-59950231D01*
X102452313Y-59866102D01*
X102635000Y-59902440D01*
X102635000Y-59902440D01*
G37*
X102635000Y-59902440D02*
X104202125Y-59902440D01*
X103330294Y-60774271D01*
X103256068Y-60823867D01*
X103206472Y-60898093D01*
X103206471Y-60898094D01*
X103059582Y-61117930D01*
X102990584Y-61464800D01*
X103008001Y-61552359D01*
X103008001Y-62206000D01*
X102785750Y-62206000D01*
X102627000Y-62364750D01*
X102627000Y-63476000D01*
X102647000Y-63476000D01*
X102647000Y-63730000D01*
X102627000Y-63730000D01*
X102627000Y-63750000D01*
X102373000Y-63750000D01*
X102373000Y-63730000D01*
X102353000Y-63730000D01*
X102353000Y-63476000D01*
X102373000Y-63476000D01*
X102373000Y-62364750D01*
X102214250Y-62206000D01*
X102193034Y-62206000D01*
X102193200Y-62205166D01*
X102193200Y-60006237D01*
X102249206Y-59950231D01*
X102452313Y-59866102D01*
X102635000Y-59902440D01*
M02*
